<mxfile host="Electron" modified="2023-05-02T12:28:45.785Z" agent="Mozilla/5.0 (Windows NT 10.0; Win64; x64) AppleWebKit/537.36 (KHTML, like Gecko) draw.io/21.2.1 Chrome/112.0.5615.87 Electron/24.1.2 Safari/537.36" etag="Uo0PmC64FZz_GqDKbsYe" version="21.2.1" type="device">
  <diagram id="C5RBs43oDa-KdzZeNtuy" name="Page-1">
    <mxGraphModel dx="1727" dy="1010" grid="1" gridSize="10" guides="1" tooltips="1" connect="1" arrows="1" fold="1" page="1" pageScale="1" pageWidth="827" pageHeight="1169" math="0" shadow="0">
      <root>
        <mxCell id="WIyWlLk6GJQsqaUBKTNV-0" />
        <mxCell id="WIyWlLk6GJQsqaUBKTNV-1" parent="WIyWlLk6GJQsqaUBKTNV-0" visible="0" />
        <mxCell id="6HZ1eUQJFXA4Xak1XK23-3" style="edgeStyle=orthogonalEdgeStyle;rounded=0;orthogonalLoop=1;jettySize=auto;html=1;exitX=0.5;exitY=1;exitDx=0;exitDy=0;entryX=0.5;entryY=0;entryDx=0;entryDy=0;endArrow=block;endFill=0;endSize=8;" parent="WIyWlLk6GJQsqaUBKTNV-1" source="6HZ1eUQJFXA4Xak1XK23-0" target="6HZ1eUQJFXA4Xak1XK23-2" edge="1">
          <mxGeometry relative="1" as="geometry" />
        </mxCell>
        <mxCell id="6HZ1eUQJFXA4Xak1XK23-0" value="Inicializuj CTM jako jednotkovou matici" style="rounded=1;whiteSpace=wrap;html=1;fontSize=12;glass=0;strokeWidth=1;shadow=0;fontFamily=Times New Roman;" parent="WIyWlLk6GJQsqaUBKTNV-1" vertex="1">
          <mxGeometry x="35" y="230" width="130" height="40" as="geometry" />
        </mxCell>
        <mxCell id="6HZ1eUQJFXA4Xak1XK23-5" style="edgeStyle=orthogonalEdgeStyle;rounded=0;orthogonalLoop=1;jettySize=auto;html=1;exitX=0.5;exitY=1;exitDx=0;exitDy=0;entryX=0.5;entryY=0;entryDx=0;entryDy=0;jumpSize=6;endArrow=block;endFill=0;endSize=8;" parent="WIyWlLk6GJQsqaUBKTNV-1" source="6HZ1eUQJFXA4Xak1XK23-2" target="6HZ1eUQJFXA4Xak1XK23-6" edge="1">
          <mxGeometry relative="1" as="geometry">
            <mxPoint x="100" y="500" as="targetPoint" />
          </mxGeometry>
        </mxCell>
        <mxCell id="6HZ1eUQJFXA4Xak1XK23-10" value="&lt;font style=&quot;font-size: 12px;&quot; face=&quot;Times New Roman&quot;&gt;NE&lt;/font&gt;" style="edgeLabel;html=1;align=center;verticalAlign=middle;resizable=0;points=[];" parent="6HZ1eUQJFXA4Xak1XK23-5" vertex="1" connectable="0">
          <mxGeometry x="0.1872" relative="1" as="geometry">
            <mxPoint x="15" y="-6" as="offset" />
          </mxGeometry>
        </mxCell>
        <mxCell id="6HZ1eUQJFXA4Xak1XK23-12" style="edgeStyle=orthogonalEdgeStyle;rounded=0;orthogonalLoop=1;jettySize=auto;html=1;exitX=1;exitY=0.5;exitDx=0;exitDy=0;entryX=0;entryY=0.5;entryDx=0;entryDy=0;endArrow=block;endFill=0;endSize=8;" parent="WIyWlLk6GJQsqaUBKTNV-1" source="6HZ1eUQJFXA4Xak1XK23-2" target="6HZ1eUQJFXA4Xak1XK23-11" edge="1">
          <mxGeometry relative="1" as="geometry" />
        </mxCell>
        <mxCell id="6HZ1eUQJFXA4Xak1XK23-13" value="ANO" style="edgeLabel;html=1;align=center;verticalAlign=middle;resizable=0;points=[];fontFamily=Times New Roman;" parent="6HZ1eUQJFXA4Xak1XK23-12" vertex="1" connectable="0">
          <mxGeometry x="-0.2928" y="-2" relative="1" as="geometry">
            <mxPoint x="7" y="-17" as="offset" />
          </mxGeometry>
        </mxCell>
        <mxCell id="6HZ1eUQJFXA4Xak1XK23-2" value="Zbývají příkazy&lt;br&gt;uvnitř content&lt;br&gt;streamu?" style="rhombus;whiteSpace=wrap;html=1;shadow=0;fontFamily=Times New Roman;fontSize=12;align=center;strokeWidth=1;spacing=0;spacingTop=0;" parent="WIyWlLk6GJQsqaUBKTNV-1" vertex="1">
          <mxGeometry x="37.5" y="330" width="125" height="110" as="geometry" />
        </mxCell>
        <mxCell id="6HZ1eUQJFXA4Xak1XK23-6" value="Seřaď všechny uložené souřadnice, aby byly shora dolů a zleva doprava" style="rounded=1;whiteSpace=wrap;html=1;fontSize=12;glass=0;strokeWidth=1;shadow=0;fontFamily=Times New Roman;" parent="WIyWlLk6GJQsqaUBKTNV-1" vertex="1">
          <mxGeometry x="35" y="500" width="130" height="60" as="geometry" />
        </mxCell>
        <mxCell id="6HZ1eUQJFXA4Xak1XK23-9" style="edgeStyle=orthogonalEdgeStyle;rounded=0;orthogonalLoop=1;jettySize=auto;html=1;exitX=0.5;exitY=1;exitDx=0;exitDy=0;entryX=0.5;entryY=0;entryDx=0;entryDy=0;endArrow=block;endFill=0;endSize=8;" parent="WIyWlLk6GJQsqaUBKTNV-1" source="6HZ1eUQJFXA4Xak1XK23-8" target="6HZ1eUQJFXA4Xak1XK23-0" edge="1">
          <mxGeometry relative="1" as="geometry" />
        </mxCell>
        <mxCell id="6HZ1eUQJFXA4Xak1XK23-8" value="Získej všechny objekty XObject evokované aktuální stránkou" style="rounded=1;whiteSpace=wrap;html=1;fontSize=12;glass=0;strokeWidth=1;shadow=0;fontFamily=Times New Roman;" parent="WIyWlLk6GJQsqaUBKTNV-1" vertex="1">
          <mxGeometry x="35" y="130" width="130" height="40" as="geometry" />
        </mxCell>
        <mxCell id="6HZ1eUQJFXA4Xak1XK23-17" style="edgeStyle=orthogonalEdgeStyle;shape=connector;rounded=0;orthogonalLoop=1;jettySize=auto;html=1;exitX=1;exitY=0.5;exitDx=0;exitDy=0;entryX=0;entryY=0.5;entryDx=0;entryDy=0;labelBackgroundColor=default;strokeColor=default;fontFamily=Helvetica;fontSize=11;fontColor=default;endArrow=block;endFill=0;endSize=8;" parent="WIyWlLk6GJQsqaUBKTNV-1" target="6HZ1eUQJFXA4Xak1XK23-16" edge="1">
          <mxGeometry relative="1" as="geometry">
            <mxPoint x="315.00000000000045" y="385" as="sourcePoint" />
          </mxGeometry>
        </mxCell>
        <mxCell id="6HZ1eUQJFXA4Xak1XK23-11" value="Vezmi další příkaz" style="rounded=1;whiteSpace=wrap;html=1;fontSize=12;glass=0;strokeWidth=1;shadow=0;fontFamily=Times New Roman;" parent="WIyWlLk6GJQsqaUBKTNV-1" vertex="1">
          <mxGeometry x="235" y="365" width="105" height="40" as="geometry" />
        </mxCell>
        <mxCell id="6HZ1eUQJFXA4Xak1XK23-19" style="edgeStyle=orthogonalEdgeStyle;shape=connector;rounded=0;orthogonalLoop=1;jettySize=auto;html=1;exitX=1;exitY=0.5;exitDx=0;exitDy=0;entryX=0;entryY=0.5;entryDx=0;entryDy=0;labelBackgroundColor=default;strokeColor=default;fontFamily=Times New Roman;fontSize=12;fontColor=default;endArrow=block;endFill=0;endSize=8;" parent="WIyWlLk6GJQsqaUBKTNV-1" source="6HZ1eUQJFXA4Xak1XK23-16" target="6HZ1eUQJFXA4Xak1XK23-18" edge="1">
          <mxGeometry relative="1" as="geometry" />
        </mxCell>
        <mxCell id="6HZ1eUQJFXA4Xak1XK23-20" value="NE" style="edgeLabel;html=1;align=center;verticalAlign=middle;resizable=0;points=[];fontSize=12;fontFamily=Times New Roman;fontColor=default;" parent="6HZ1eUQJFXA4Xak1XK23-19" vertex="1" connectable="0">
          <mxGeometry x="0.2722" y="-1" relative="1" as="geometry">
            <mxPoint x="-16" y="-16" as="offset" />
          </mxGeometry>
        </mxCell>
        <mxCell id="6HZ1eUQJFXA4Xak1XK23-30" style="edgeStyle=orthogonalEdgeStyle;shape=connector;rounded=0;orthogonalLoop=1;jettySize=auto;html=1;exitX=0.5;exitY=1;exitDx=0;exitDy=0;entryX=0.5;entryY=0;entryDx=0;entryDy=0;labelBackgroundColor=default;strokeColor=default;fontFamily=Times New Roman;fontSize=12;fontColor=default;endArrow=block;endFill=0;endSize=8;" parent="WIyWlLk6GJQsqaUBKTNV-1" source="6HZ1eUQJFXA4Xak1XK23-16" target="6HZ1eUQJFXA4Xak1XK23-29" edge="1">
          <mxGeometry relative="1" as="geometry" />
        </mxCell>
        <mxCell id="6HZ1eUQJFXA4Xak1XK23-31" value="ANO" style="edgeLabel;html=1;align=center;verticalAlign=middle;resizable=0;points=[];fontSize=12;fontFamily=Times New Roman;fontColor=default;" parent="6HZ1eUQJFXA4Xak1XK23-30" vertex="1" connectable="0">
          <mxGeometry x="0.2899" y="1" relative="1" as="geometry">
            <mxPoint x="17" y="-9" as="offset" />
          </mxGeometry>
        </mxCell>
        <mxCell id="6HZ1eUQJFXA4Xak1XK23-16" value="Má daný příkaz&lt;br&gt;operátor&amp;nbsp; &lt;b style=&quot;font-family: &amp;quot;Lucida Console&amp;quot;;&quot;&gt;q&lt;/b&gt;?" style="rhombus;whiteSpace=wrap;html=1;shadow=0;fontFamily=Times New Roman;fontSize=12;align=center;strokeWidth=1;spacing=0;spacingTop=0;" parent="WIyWlLk6GJQsqaUBKTNV-1" vertex="1">
          <mxGeometry x="410" y="330" width="125" height="110" as="geometry" />
        </mxCell>
        <mxCell id="6HZ1eUQJFXA4Xak1XK23-22" style="edgeStyle=orthogonalEdgeStyle;shape=connector;rounded=0;orthogonalLoop=1;jettySize=auto;html=1;exitX=1;exitY=0.5;exitDx=0;exitDy=0;entryX=0;entryY=0.5;entryDx=0;entryDy=0;labelBackgroundColor=default;strokeColor=default;fontFamily=Times New Roman;fontSize=12;fontColor=default;endArrow=block;endFill=0;endSize=8;" parent="WIyWlLk6GJQsqaUBKTNV-1" source="6HZ1eUQJFXA4Xak1XK23-18" target="6HZ1eUQJFXA4Xak1XK23-21" edge="1">
          <mxGeometry relative="1" as="geometry" />
        </mxCell>
        <mxCell id="6HZ1eUQJFXA4Xak1XK23-23" value="NE" style="edgeLabel;html=1;align=center;verticalAlign=middle;resizable=0;points=[];fontSize=12;fontFamily=Times New Roman;fontColor=default;" parent="6HZ1eUQJFXA4Xak1XK23-22" vertex="1" connectable="0">
          <mxGeometry x="0.3279" relative="1" as="geometry">
            <mxPoint x="-8" y="-15" as="offset" />
          </mxGeometry>
        </mxCell>
        <mxCell id="6HZ1eUQJFXA4Xak1XK23-18" value="Má daný příkaz&lt;br&gt;operátor&amp;nbsp; &lt;font face=&quot;Lucida Console&quot;&gt;&lt;b&gt;Q&lt;/b&gt;&lt;/font&gt;?" style="rhombus;whiteSpace=wrap;html=1;shadow=0;fontFamily=Times New Roman;fontSize=12;align=center;strokeWidth=1;spacing=0;spacingTop=0;" parent="WIyWlLk6GJQsqaUBKTNV-1" vertex="1">
          <mxGeometry x="600" y="330" width="125" height="110" as="geometry" />
        </mxCell>
        <mxCell id="6HZ1eUQJFXA4Xak1XK23-25" style="edgeStyle=orthogonalEdgeStyle;shape=connector;rounded=0;orthogonalLoop=1;jettySize=auto;html=1;exitX=1;exitY=0.5;exitDx=0;exitDy=0;entryX=0;entryY=0.5;entryDx=0;entryDy=0;labelBackgroundColor=default;strokeColor=default;fontFamily=Times New Roman;fontSize=12;fontColor=default;endArrow=block;endFill=0;endSize=8;" parent="WIyWlLk6GJQsqaUBKTNV-1" source="6HZ1eUQJFXA4Xak1XK23-21" target="6HZ1eUQJFXA4Xak1XK23-24" edge="1">
          <mxGeometry relative="1" as="geometry" />
        </mxCell>
        <mxCell id="6HZ1eUQJFXA4Xak1XK23-26" value="NE" style="edgeLabel;html=1;align=center;verticalAlign=middle;resizable=0;points=[];fontSize=12;fontFamily=Times New Roman;fontColor=default;" parent="6HZ1eUQJFXA4Xak1XK23-25" vertex="1" connectable="0">
          <mxGeometry x="0.201" relative="1" as="geometry">
            <mxPoint x="-4" y="-15" as="offset" />
          </mxGeometry>
        </mxCell>
        <mxCell id="6HZ1eUQJFXA4Xak1XK23-21" value="Má daný příkaz&lt;br&gt;operátor&amp;nbsp; &lt;font face=&quot;Lucida Console&quot;&gt;&lt;b&gt;cm&lt;/b&gt;&lt;/font&gt;?" style="rhombus;whiteSpace=wrap;html=1;shadow=0;fontFamily=Times New Roman;fontSize=12;align=center;strokeWidth=1;spacing=0;spacingTop=0;" parent="WIyWlLk6GJQsqaUBKTNV-1" vertex="1">
          <mxGeometry x="790" y="330" width="125" height="110" as="geometry" />
        </mxCell>
        <mxCell id="6HZ1eUQJFXA4Xak1XK23-27" style="edgeStyle=orthogonalEdgeStyle;shape=connector;rounded=0;orthogonalLoop=1;jettySize=auto;html=1;exitX=1;exitY=0.5;exitDx=0;exitDy=0;labelBackgroundColor=default;strokeColor=default;fontFamily=Times New Roman;fontSize=12;fontColor=default;endArrow=block;endFill=0;endSize=8;" parent="WIyWlLk6GJQsqaUBKTNV-1" source="6HZ1eUQJFXA4Xak1XK23-24" edge="1">
          <mxGeometry relative="1" as="geometry">
            <mxPoint x="101" y="300" as="targetPoint" />
            <Array as="points">
              <mxPoint x="1140" y="385" />
              <mxPoint x="1140" y="300" />
            </Array>
          </mxGeometry>
        </mxCell>
        <mxCell id="6HZ1eUQJFXA4Xak1XK23-28" value="NE" style="edgeLabel;html=1;align=center;verticalAlign=middle;resizable=0;points=[];fontSize=12;fontFamily=Times New Roman;fontColor=default;" parent="6HZ1eUQJFXA4Xak1XK23-27" vertex="1" connectable="0">
          <mxGeometry x="-0.2611" y="-2" relative="1" as="geometry">
            <mxPoint x="-203" y="-18" as="offset" />
          </mxGeometry>
        </mxCell>
        <mxCell id="6HZ1eUQJFXA4Xak1XK23-24" value="Má daný příkaz&lt;br&gt;operátor&amp;nbsp; &lt;font face=&quot;Lucida Console&quot;&gt;&lt;b&gt;Do&lt;/b&gt;&lt;/font&gt;&amp;nbsp;a&lt;br&gt;je použit pro některý&lt;br&gt;získaný XObject?" style="rhombus;whiteSpace=wrap;html=1;shadow=0;fontFamily=Times New Roman;fontSize=12;align=center;strokeWidth=1;spacing=0;spacingTop=0;" parent="WIyWlLk6GJQsqaUBKTNV-1" vertex="1">
          <mxGeometry x="980" y="315" width="150" height="140" as="geometry" />
        </mxCell>
        <mxCell id="6HZ1eUQJFXA4Xak1XK23-44" style="edgeStyle=orthogonalEdgeStyle;shape=connector;rounded=0;orthogonalLoop=1;jettySize=auto;html=1;exitX=0.5;exitY=1;exitDx=0;exitDy=0;labelBackgroundColor=default;strokeColor=default;fontFamily=Times New Roman;fontSize=12;fontColor=default;endArrow=block;endFill=0;endSize=8;" parent="WIyWlLk6GJQsqaUBKTNV-1" source="6HZ1eUQJFXA4Xak1XK23-29" edge="1">
          <mxGeometry relative="1" as="geometry">
            <mxPoint x="99" y="300" as="targetPoint" />
            <Array as="points">
              <mxPoint x="470" y="540" />
              <mxPoint x="470" y="590" />
              <mxPoint x="30" y="590" />
              <mxPoint x="30" y="300" />
            </Array>
          </mxGeometry>
        </mxCell>
        <mxCell id="6HZ1eUQJFXA4Xak1XK23-29" value="Ulož CTM do zásobníku" style="rounded=1;whiteSpace=wrap;html=1;fontSize=12;glass=0;strokeWidth=1;shadow=0;fontFamily=Times New Roman;" parent="WIyWlLk6GJQsqaUBKTNV-1" vertex="1">
          <mxGeometry x="407.5" y="500" width="130" height="40" as="geometry" />
        </mxCell>
        <mxCell id="6HZ1eUQJFXA4Xak1XK23-35" style="edgeStyle=orthogonalEdgeStyle;shape=connector;rounded=0;orthogonalLoop=1;jettySize=auto;html=1;exitX=0.5;exitY=1;exitDx=0;exitDy=0;entryX=0.5;entryY=0;entryDx=0;entryDy=0;labelBackgroundColor=default;strokeColor=default;fontFamily=Times New Roman;fontSize=12;fontColor=default;endArrow=block;endFill=0;endSize=8;" parent="WIyWlLk6GJQsqaUBKTNV-1" source="6HZ1eUQJFXA4Xak1XK23-18" target="6HZ1eUQJFXA4Xak1XK23-37" edge="1">
          <mxGeometry relative="1" as="geometry">
            <mxPoint x="663" y="440" as="sourcePoint" />
          </mxGeometry>
        </mxCell>
        <mxCell id="6HZ1eUQJFXA4Xak1XK23-36" value="ANO" style="edgeLabel;html=1;align=center;verticalAlign=middle;resizable=0;points=[];fontSize=12;fontFamily=Times New Roman;fontColor=default;" parent="6HZ1eUQJFXA4Xak1XK23-35" vertex="1" connectable="0">
          <mxGeometry x="0.2899" y="1" relative="1" as="geometry">
            <mxPoint x="17" y="-9" as="offset" />
          </mxGeometry>
        </mxCell>
        <mxCell id="6HZ1eUQJFXA4Xak1XK23-45" style="edgeStyle=orthogonalEdgeStyle;shape=connector;rounded=0;orthogonalLoop=1;jettySize=auto;html=1;exitX=0.5;exitY=1;exitDx=0;exitDy=0;labelBackgroundColor=default;strokeColor=default;fontFamily=Times New Roman;fontSize=12;fontColor=default;endArrow=none;endFill=0;endSize=8;" parent="WIyWlLk6GJQsqaUBKTNV-1" source="6HZ1eUQJFXA4Xak1XK23-37" edge="1">
          <mxGeometry relative="1" as="geometry">
            <mxPoint x="470" y="590.0000000000002" as="targetPoint" />
            <Array as="points">
              <mxPoint x="663" y="590" />
            </Array>
          </mxGeometry>
        </mxCell>
        <mxCell id="6HZ1eUQJFXA4Xak1XK23-37" value="Přiřaď CTM poslední uloženou hodnotu zásobníku" style="rounded=1;whiteSpace=wrap;html=1;fontSize=12;glass=0;strokeWidth=1;shadow=0;fontFamily=Times New Roman;" parent="WIyWlLk6GJQsqaUBKTNV-1" vertex="1">
          <mxGeometry x="597.5" y="500" width="130" height="40" as="geometry" />
        </mxCell>
        <mxCell id="6HZ1eUQJFXA4Xak1XK23-38" style="edgeStyle=orthogonalEdgeStyle;shape=connector;rounded=0;orthogonalLoop=1;jettySize=auto;html=1;exitX=0.5;exitY=1;exitDx=0;exitDy=0;entryX=0.5;entryY=0;entryDx=0;entryDy=0;labelBackgroundColor=default;strokeColor=default;fontFamily=Times New Roman;fontSize=12;fontColor=default;endArrow=block;endFill=0;endSize=8;" parent="WIyWlLk6GJQsqaUBKTNV-1" source="6HZ1eUQJFXA4Xak1XK23-21" target="6HZ1eUQJFXA4Xak1XK23-40" edge="1">
          <mxGeometry relative="1" as="geometry">
            <mxPoint x="853" y="440" as="sourcePoint" />
          </mxGeometry>
        </mxCell>
        <mxCell id="6HZ1eUQJFXA4Xak1XK23-39" value="ANO" style="edgeLabel;html=1;align=center;verticalAlign=middle;resizable=0;points=[];fontSize=12;fontFamily=Times New Roman;fontColor=default;" parent="6HZ1eUQJFXA4Xak1XK23-38" vertex="1" connectable="0">
          <mxGeometry x="0.2899" y="1" relative="1" as="geometry">
            <mxPoint x="17" y="-9" as="offset" />
          </mxGeometry>
        </mxCell>
        <mxCell id="6HZ1eUQJFXA4Xak1XK23-46" style="edgeStyle=orthogonalEdgeStyle;shape=connector;rounded=0;orthogonalLoop=1;jettySize=auto;html=1;exitX=0.5;exitY=1;exitDx=0;exitDy=0;labelBackgroundColor=default;strokeColor=default;fontFamily=Times New Roman;fontSize=12;fontColor=default;endArrow=none;endFill=0;endSize=8;" parent="WIyWlLk6GJQsqaUBKTNV-1" source="6HZ1eUQJFXA4Xak1XK23-40" edge="1">
          <mxGeometry relative="1" as="geometry">
            <mxPoint x="660" y="590.0000000000002" as="targetPoint" />
            <Array as="points">
              <mxPoint x="853" y="590" />
            </Array>
          </mxGeometry>
        </mxCell>
        <mxCell id="6HZ1eUQJFXA4Xak1XK23-40" value="CTM vynásob zleva operandem příkazu a ulož do CTM" style="rounded=1;whiteSpace=wrap;html=1;fontSize=12;glass=0;strokeWidth=1;shadow=0;fontFamily=Times New Roman;" parent="WIyWlLk6GJQsqaUBKTNV-1" vertex="1">
          <mxGeometry x="787.5" y="500" width="130" height="40" as="geometry" />
        </mxCell>
        <mxCell id="6HZ1eUQJFXA4Xak1XK23-41" style="edgeStyle=orthogonalEdgeStyle;shape=connector;rounded=0;orthogonalLoop=1;jettySize=auto;html=1;exitX=0.5;exitY=1;exitDx=0;exitDy=0;labelBackgroundColor=default;strokeColor=default;fontFamily=Times New Roman;fontSize=12;fontColor=default;endArrow=block;endFill=0;endSize=8;entryX=0.5;entryY=0;entryDx=0;entryDy=0;" parent="WIyWlLk6GJQsqaUBKTNV-1" source="6HZ1eUQJFXA4Xak1XK23-24" target="6HZ1eUQJFXA4Xak1XK23-48" edge="1">
          <mxGeometry relative="1" as="geometry">
            <mxPoint x="1055.5" y="440" as="sourcePoint" />
            <mxPoint x="1040" y="490" as="targetPoint" />
          </mxGeometry>
        </mxCell>
        <mxCell id="6HZ1eUQJFXA4Xak1XK23-42" value="ANO" style="edgeLabel;html=1;align=center;verticalAlign=middle;resizable=0;points=[];fontSize=12;fontFamily=Times New Roman;fontColor=default;" parent="6HZ1eUQJFXA4Xak1XK23-41" vertex="1" connectable="0">
          <mxGeometry x="0.2899" y="1" relative="1" as="geometry">
            <mxPoint x="17" y="-9" as="offset" />
          </mxGeometry>
        </mxCell>
        <mxCell id="6HZ1eUQJFXA4Xak1XK23-55" style="edgeStyle=orthogonalEdgeStyle;shape=connector;rounded=0;orthogonalLoop=1;jettySize=auto;html=1;exitX=0;exitY=0.5;exitDx=0;exitDy=0;entryX=1;entryY=0.5;entryDx=0;entryDy=0;labelBackgroundColor=default;strokeColor=default;fontFamily=Times New Roman;fontSize=12;fontColor=default;endArrow=block;endFill=0;endSize=8;" parent="WIyWlLk6GJQsqaUBKTNV-1" source="6HZ1eUQJFXA4Xak1XK23-43" target="6HZ1eUQJFXA4Xak1XK23-54" edge="1">
          <mxGeometry relative="1" as="geometry" />
        </mxCell>
        <mxCell id="6HZ1eUQJFXA4Xak1XK23-43" value="CTM vynásob zprava transformační maticí stránky a ulož jako matici obrázku" style="rounded=1;whiteSpace=wrap;html=1;fontSize=12;glass=0;strokeWidth=1;shadow=0;fontFamily=Times New Roman;" parent="WIyWlLk6GJQsqaUBKTNV-1" vertex="1">
          <mxGeometry x="610" y="610" width="130" height="60" as="geometry" />
        </mxCell>
        <mxCell id="6HZ1eUQJFXA4Xak1XK23-52" style="edgeStyle=orthogonalEdgeStyle;shape=connector;rounded=0;orthogonalLoop=1;jettySize=auto;html=1;exitX=0;exitY=0.5;exitDx=0;exitDy=0;entryX=1;entryY=0.5;entryDx=0;entryDy=0;labelBackgroundColor=default;strokeColor=default;fontFamily=Times New Roman;fontSize=12;fontColor=default;endArrow=block;endFill=0;endSize=8;" parent="WIyWlLk6GJQsqaUBKTNV-1" source="6HZ1eUQJFXA4Xak1XK23-47" target="6HZ1eUQJFXA4Xak1XK23-43" edge="1">
          <mxGeometry relative="1" as="geometry" />
        </mxCell>
        <mxCell id="6HZ1eUQJFXA4Xak1XK23-47" value="Získej původní&lt;br&gt;souřadnice obrázku&amp;nbsp;" style="rounded=1;whiteSpace=wrap;html=1;fontSize=12;glass=0;strokeWidth=1;shadow=0;fontFamily=Times New Roman;" parent="WIyWlLk6GJQsqaUBKTNV-1" vertex="1">
          <mxGeometry x="800" y="620" width="130" height="40" as="geometry" />
        </mxCell>
        <mxCell id="6HZ1eUQJFXA4Xak1XK23-50" style="edgeStyle=orthogonalEdgeStyle;shape=connector;rounded=0;orthogonalLoop=1;jettySize=auto;html=1;exitX=0.5;exitY=1;exitDx=0;exitDy=0;entryX=0.5;entryY=0;entryDx=0;entryDy=0;labelBackgroundColor=default;strokeColor=default;fontFamily=Times New Roman;fontSize=12;fontColor=default;endArrow=block;endFill=0;endSize=8;" parent="WIyWlLk6GJQsqaUBKTNV-1" source="6HZ1eUQJFXA4Xak1XK23-48" target="6HZ1eUQJFXA4Xak1XK23-49" edge="1">
          <mxGeometry relative="1" as="geometry" />
        </mxCell>
        <mxCell id="6HZ1eUQJFXA4Xak1XK23-48" value="Ulož CTM do zásobníku" style="rounded=1;whiteSpace=wrap;html=1;fontSize=12;glass=0;strokeWidth=1;shadow=0;fontFamily=Times New Roman;" parent="WIyWlLk6GJQsqaUBKTNV-1" vertex="1">
          <mxGeometry x="990" y="500" width="130" height="40" as="geometry" />
        </mxCell>
        <mxCell id="6HZ1eUQJFXA4Xak1XK23-51" style="edgeStyle=orthogonalEdgeStyle;shape=connector;rounded=0;orthogonalLoop=1;jettySize=auto;html=1;exitX=0;exitY=0.5;exitDx=0;exitDy=0;entryX=1;entryY=0.5;entryDx=0;entryDy=0;labelBackgroundColor=default;strokeColor=default;fontFamily=Times New Roman;fontSize=12;fontColor=default;endArrow=block;endFill=0;endSize=8;" parent="WIyWlLk6GJQsqaUBKTNV-1" source="6HZ1eUQJFXA4Xak1XK23-49" target="6HZ1eUQJFXA4Xak1XK23-47" edge="1">
          <mxGeometry relative="1" as="geometry" />
        </mxCell>
        <mxCell id="6HZ1eUQJFXA4Xak1XK23-49" value="CTM vynásob zleva maticí obrázku a ulož do CTM" style="rounded=1;whiteSpace=wrap;html=1;fontSize=12;glass=0;strokeWidth=1;shadow=0;fontFamily=Times New Roman;" parent="WIyWlLk6GJQsqaUBKTNV-1" vertex="1">
          <mxGeometry x="990" y="620" width="130" height="40" as="geometry" />
        </mxCell>
        <mxCell id="6HZ1eUQJFXA4Xak1XK23-57" style="edgeStyle=orthogonalEdgeStyle;shape=connector;rounded=0;orthogonalLoop=1;jettySize=auto;html=1;exitX=0;exitY=0.5;exitDx=0;exitDy=0;entryX=1;entryY=0.5;entryDx=0;entryDy=0;labelBackgroundColor=default;strokeColor=default;fontFamily=Times New Roman;fontSize=12;fontColor=default;endArrow=block;endFill=0;endSize=8;" parent="WIyWlLk6GJQsqaUBKTNV-1" source="6HZ1eUQJFXA4Xak1XK23-54" target="6HZ1eUQJFXA4Xak1XK23-56" edge="1">
          <mxGeometry relative="1" as="geometry" />
        </mxCell>
        <mxCell id="6HZ1eUQJFXA4Xak1XK23-54" value="Získej souřadnice obrázku na aktuální stránce a ulož" style="rounded=1;whiteSpace=wrap;html=1;fontSize=12;glass=0;strokeWidth=1;shadow=0;fontFamily=Times New Roman;" parent="WIyWlLk6GJQsqaUBKTNV-1" vertex="1">
          <mxGeometry x="420" y="620" width="130" height="40" as="geometry" />
        </mxCell>
        <mxCell id="6HZ1eUQJFXA4Xak1XK23-58" style="edgeStyle=orthogonalEdgeStyle;shape=connector;rounded=0;orthogonalLoop=1;jettySize=auto;html=1;exitX=0;exitY=0.5;exitDx=0;exitDy=0;labelBackgroundColor=default;strokeColor=default;fontFamily=Times New Roman;fontSize=12;fontColor=default;endArrow=none;endFill=0;endSize=8;" parent="WIyWlLk6GJQsqaUBKTNV-1" source="6HZ1eUQJFXA4Xak1XK23-56" edge="1">
          <mxGeometry relative="1" as="geometry">
            <mxPoint x="30" y="590" as="targetPoint" />
            <Array as="points">
              <mxPoint x="30" y="640" />
              <mxPoint x="30" y="590" />
            </Array>
          </mxGeometry>
        </mxCell>
        <mxCell id="6HZ1eUQJFXA4Xak1XK23-56" value="Přiřaď CTM poslední uloženou hodnotu zásobníku" style="rounded=1;whiteSpace=wrap;html=1;fontSize=12;glass=0;strokeWidth=1;shadow=0;fontFamily=Times New Roman;" parent="WIyWlLk6GJQsqaUBKTNV-1" vertex="1">
          <mxGeometry x="230" y="620" width="130" height="40" as="geometry" />
        </mxCell>
        <mxCell id="6HZ1eUQJFXA4Xak1XK23-61" value="Vrstva bez názvu" parent="WIyWlLk6GJQsqaUBKTNV-0" visible="0" />
        <mxCell id="6HZ1eUQJFXA4Xak1XK23-62" style="edgeStyle=orthogonalEdgeStyle;rounded=0;orthogonalLoop=1;jettySize=auto;html=1;exitX=0.5;exitY=1;exitDx=0;exitDy=0;entryX=0.5;entryY=0;entryDx=0;entryDy=0;endArrow=block;endFill=0;endSize=8;" parent="6HZ1eUQJFXA4Xak1XK23-61" source="6HZ1eUQJFXA4Xak1XK23-63" target="6HZ1eUQJFXA4Xak1XK23-68" edge="1">
          <mxGeometry relative="1" as="geometry" />
        </mxCell>
        <mxCell id="6HZ1eUQJFXA4Xak1XK23-63" value="Inicializuj CTM jako jednotkovou matici" style="rounded=1;whiteSpace=wrap;html=1;fontSize=12;glass=0;strokeWidth=1;shadow=0;fontFamily=Times New Roman;" parent="6HZ1eUQJFXA4Xak1XK23-61" vertex="1">
          <mxGeometry x="84" y="240" width="130" height="40" as="geometry" />
        </mxCell>
        <mxCell id="6HZ1eUQJFXA4Xak1XK23-64" style="edgeStyle=orthogonalEdgeStyle;rounded=0;orthogonalLoop=1;jettySize=auto;html=1;exitX=1;exitY=0.5;exitDx=0;exitDy=0;entryX=0;entryY=0.5;entryDx=0;entryDy=0;jumpSize=6;endArrow=block;endFill=0;endSize=8;" parent="6HZ1eUQJFXA4Xak1XK23-61" source="6HZ1eUQJFXA4Xak1XK23-68" target="6HZ1eUQJFXA4Xak1XK23-69" edge="1">
          <mxGeometry relative="1" as="geometry">
            <mxPoint x="149" y="510" as="targetPoint" />
          </mxGeometry>
        </mxCell>
        <mxCell id="6HZ1eUQJFXA4Xak1XK23-65" value="&lt;font style=&quot;font-size: 12px;&quot; face=&quot;Times New Roman&quot;&gt;NE&lt;/font&gt;" style="edgeLabel;html=1;align=center;verticalAlign=middle;resizable=0;points=[];" parent="6HZ1eUQJFXA4Xak1XK23-64" vertex="1" connectable="0">
          <mxGeometry x="0.1872" relative="1" as="geometry">
            <mxPoint x="-12" y="-15" as="offset" />
          </mxGeometry>
        </mxCell>
        <mxCell id="6HZ1eUQJFXA4Xak1XK23-112" style="edgeStyle=orthogonalEdgeStyle;shape=connector;rounded=0;orthogonalLoop=1;jettySize=auto;html=1;exitX=0.5;exitY=1;exitDx=0;exitDy=0;entryX=0.5;entryY=0;entryDx=0;entryDy=0;labelBackgroundColor=default;strokeColor=default;fontFamily=Times New Roman;fontSize=12;fontColor=default;endArrow=block;endFill=0;endSize=8;" parent="6HZ1eUQJFXA4Xak1XK23-61" source="6HZ1eUQJFXA4Xak1XK23-68" target="6HZ1eUQJFXA4Xak1XK23-73" edge="1">
          <mxGeometry relative="1" as="geometry" />
        </mxCell>
        <mxCell id="6HZ1eUQJFXA4Xak1XK23-113" value="ANO" style="edgeLabel;html=1;align=center;verticalAlign=middle;resizable=0;points=[];fontSize=12;fontFamily=Times New Roman;fontColor=default;" parent="6HZ1eUQJFXA4Xak1XK23-112" vertex="1" connectable="0">
          <mxGeometry x="-0.3512" relative="1" as="geometry">
            <mxPoint x="20" y="2" as="offset" />
          </mxGeometry>
        </mxCell>
        <mxCell id="6HZ1eUQJFXA4Xak1XK23-68" value="Zbývají příkazy&lt;br&gt;uvnitř content&lt;br&gt;streamu?" style="rhombus;whiteSpace=wrap;html=1;shadow=0;fontFamily=Times New Roman;fontSize=12;align=center;strokeWidth=1;spacing=0;spacingTop=0;" parent="6HZ1eUQJFXA4Xak1XK23-61" vertex="1">
          <mxGeometry x="86.5" y="340" width="125" height="110" as="geometry" />
        </mxCell>
        <mxCell id="6HZ1eUQJFXA4Xak1XK23-69" value="Seřaď všechny uložené souřadnice, aby byly shora dolů a zleva doprava" style="rounded=1;whiteSpace=wrap;html=1;fontSize=12;glass=0;strokeWidth=1;shadow=0;fontFamily=Times New Roman;" parent="6HZ1eUQJFXA4Xak1XK23-61" vertex="1">
          <mxGeometry x="279" y="365" width="130" height="60" as="geometry" />
        </mxCell>
        <mxCell id="6HZ1eUQJFXA4Xak1XK23-70" style="edgeStyle=orthogonalEdgeStyle;rounded=0;orthogonalLoop=1;jettySize=auto;html=1;exitX=0.5;exitY=1;exitDx=0;exitDy=0;entryX=0.5;entryY=0;entryDx=0;entryDy=0;endArrow=block;endFill=0;endSize=8;" parent="6HZ1eUQJFXA4Xak1XK23-61" source="6HZ1eUQJFXA4Xak1XK23-71" target="6HZ1eUQJFXA4Xak1XK23-63" edge="1">
          <mxGeometry relative="1" as="geometry" />
        </mxCell>
        <mxCell id="6HZ1eUQJFXA4Xak1XK23-71" value="Získej všechny objekty XObject evokované aktuální stránkou" style="rounded=1;whiteSpace=wrap;html=1;fontSize=12;glass=0;strokeWidth=1;shadow=0;fontFamily=Times New Roman;" parent="6HZ1eUQJFXA4Xak1XK23-61" vertex="1">
          <mxGeometry x="84" y="140" width="130" height="40" as="geometry" />
        </mxCell>
        <mxCell id="6HZ1eUQJFXA4Xak1XK23-72" style="edgeStyle=orthogonalEdgeStyle;shape=connector;rounded=0;orthogonalLoop=1;jettySize=auto;html=1;exitX=1;exitY=0.5;exitDx=0;exitDy=0;entryX=0;entryY=0.5;entryDx=0;entryDy=0;labelBackgroundColor=default;strokeColor=default;fontFamily=Helvetica;fontSize=11;fontColor=default;endArrow=block;endFill=0;endSize=8;" parent="6HZ1eUQJFXA4Xak1XK23-61" source="6HZ1eUQJFXA4Xak1XK23-73" target="6HZ1eUQJFXA4Xak1XK23-78" edge="1">
          <mxGeometry relative="1" as="geometry">
            <mxPoint x="279.00000000000045" y="495" as="sourcePoint" />
          </mxGeometry>
        </mxCell>
        <mxCell id="6HZ1eUQJFXA4Xak1XK23-73" value="Vezmi další příkaz" style="rounded=1;whiteSpace=wrap;html=1;fontSize=12;glass=0;strokeWidth=1;shadow=0;fontFamily=Times New Roman;" parent="6HZ1eUQJFXA4Xak1XK23-61" vertex="1">
          <mxGeometry x="96.5" y="490" width="105" height="40" as="geometry" />
        </mxCell>
        <mxCell id="6HZ1eUQJFXA4Xak1XK23-74" style="edgeStyle=orthogonalEdgeStyle;shape=connector;rounded=0;orthogonalLoop=1;jettySize=auto;html=1;entryX=0;entryY=0.5;entryDx=0;entryDy=0;labelBackgroundColor=default;strokeColor=default;fontFamily=Times New Roman;fontSize=12;fontColor=default;endArrow=block;endFill=0;endSize=8;exitX=0.5;exitY=1;exitDx=0;exitDy=0;" parent="6HZ1eUQJFXA4Xak1XK23-61" source="6HZ1eUQJFXA4Xak1XK23-78" target="6HZ1eUQJFXA4Xak1XK23-81" edge="1">
          <mxGeometry relative="1" as="geometry">
            <mxPoint x="319" y="570" as="sourcePoint" />
          </mxGeometry>
        </mxCell>
        <mxCell id="6HZ1eUQJFXA4Xak1XK23-75" value="NE" style="edgeLabel;html=1;align=center;verticalAlign=middle;resizable=0;points=[];fontSize=12;fontFamily=Times New Roman;fontColor=default;" parent="6HZ1eUQJFXA4Xak1XK23-74" vertex="1" connectable="0">
          <mxGeometry x="0.2722" y="-1" relative="1" as="geometry">
            <mxPoint x="-21" y="-31" as="offset" />
          </mxGeometry>
        </mxCell>
        <mxCell id="6HZ1eUQJFXA4Xak1XK23-76" style="edgeStyle=orthogonalEdgeStyle;shape=connector;rounded=0;orthogonalLoop=1;jettySize=auto;html=1;exitX=1;exitY=0.5;exitDx=0;exitDy=0;entryX=0;entryY=0.5;entryDx=0;entryDy=0;labelBackgroundColor=default;strokeColor=default;fontFamily=Times New Roman;fontSize=12;fontColor=default;endArrow=block;endFill=0;endSize=8;" parent="6HZ1eUQJFXA4Xak1XK23-61" source="6HZ1eUQJFXA4Xak1XK23-78" target="6HZ1eUQJFXA4Xak1XK23-89" edge="1">
          <mxGeometry relative="1" as="geometry">
            <mxPoint x="614" y="350" as="sourcePoint" />
          </mxGeometry>
        </mxCell>
        <mxCell id="6HZ1eUQJFXA4Xak1XK23-77" value="ANO" style="edgeLabel;html=1;align=center;verticalAlign=middle;resizable=0;points=[];fontSize=12;fontFamily=Times New Roman;fontColor=default;" parent="6HZ1eUQJFXA4Xak1XK23-76" vertex="1" connectable="0">
          <mxGeometry x="0.2899" y="1" relative="1" as="geometry">
            <mxPoint x="-8" y="-9" as="offset" />
          </mxGeometry>
        </mxCell>
        <mxCell id="6HZ1eUQJFXA4Xak1XK23-78" value="Má daný příkaz&lt;br&gt;operátor&amp;nbsp; &lt;b style=&quot;font-family: &amp;quot;Lucida Console&amp;quot;;&quot;&gt;q&lt;/b&gt;?" style="rhombus;whiteSpace=wrap;html=1;shadow=0;fontFamily=Times New Roman;fontSize=12;align=center;strokeWidth=1;spacing=0;spacingTop=0;" parent="6HZ1eUQJFXA4Xak1XK23-61" vertex="1">
          <mxGeometry x="251.5" y="455" width="125" height="110" as="geometry" />
        </mxCell>
        <mxCell id="6HZ1eUQJFXA4Xak1XK23-79" style="edgeStyle=orthogonalEdgeStyle;shape=connector;rounded=0;orthogonalLoop=1;jettySize=auto;html=1;exitX=0.5;exitY=1;exitDx=0;exitDy=0;entryX=0;entryY=0.5;entryDx=0;entryDy=0;labelBackgroundColor=default;strokeColor=default;fontFamily=Times New Roman;fontSize=12;fontColor=default;endArrow=block;endFill=0;endSize=8;" parent="6HZ1eUQJFXA4Xak1XK23-61" source="6HZ1eUQJFXA4Xak1XK23-81" target="6HZ1eUQJFXA4Xak1XK23-84" edge="1">
          <mxGeometry relative="1" as="geometry">
            <Array as="points">
              <mxPoint x="411" y="695" />
              <mxPoint x="412" y="705" />
            </Array>
          </mxGeometry>
        </mxCell>
        <mxCell id="6HZ1eUQJFXA4Xak1XK23-80" value="NE" style="edgeLabel;html=1;align=center;verticalAlign=middle;resizable=0;points=[];fontSize=12;fontFamily=Times New Roman;fontColor=default;" parent="6HZ1eUQJFXA4Xak1XK23-79" vertex="1" connectable="0">
          <mxGeometry x="0.3279" relative="1" as="geometry">
            <mxPoint x="-20" y="-26" as="offset" />
          </mxGeometry>
        </mxCell>
        <mxCell id="6HZ1eUQJFXA4Xak1XK23-81" value="Má daný příkaz&lt;br&gt;operátor&amp;nbsp; &lt;font face=&quot;Lucida Console&quot;&gt;&lt;b&gt;Q&lt;/b&gt;&lt;/font&gt;?" style="rhombus;whiteSpace=wrap;html=1;shadow=0;fontFamily=Times New Roman;fontSize=12;align=center;strokeWidth=1;spacing=0;spacingTop=0;" parent="6HZ1eUQJFXA4Xak1XK23-61" vertex="1">
          <mxGeometry x="349" y="555" width="125" height="110" as="geometry" />
        </mxCell>
        <mxCell id="6HZ1eUQJFXA4Xak1XK23-82" style="edgeStyle=orthogonalEdgeStyle;shape=connector;rounded=0;orthogonalLoop=1;jettySize=auto;html=1;exitX=0.5;exitY=1;exitDx=0;exitDy=0;entryX=0;entryY=0.5;entryDx=0;entryDy=0;labelBackgroundColor=default;strokeColor=default;fontFamily=Times New Roman;fontSize=12;fontColor=default;endArrow=block;endFill=0;endSize=8;" parent="6HZ1eUQJFXA4Xak1XK23-61" source="6HZ1eUQJFXA4Xak1XK23-84" target="6HZ1eUQJFXA4Xak1XK23-87" edge="1">
          <mxGeometry relative="1" as="geometry" />
        </mxCell>
        <mxCell id="6HZ1eUQJFXA4Xak1XK23-83" value="NE" style="edgeLabel;html=1;align=center;verticalAlign=middle;resizable=0;points=[];fontSize=12;fontFamily=Times New Roman;fontColor=default;" parent="6HZ1eUQJFXA4Xak1XK23-82" vertex="1" connectable="0">
          <mxGeometry x="0.201" relative="1" as="geometry">
            <mxPoint x="-12" y="-23" as="offset" />
          </mxGeometry>
        </mxCell>
        <mxCell id="6HZ1eUQJFXA4Xak1XK23-84" value="Má daný příkaz&lt;br&gt;operátor&amp;nbsp; &lt;font face=&quot;Lucida Console&quot;&gt;&lt;b&gt;cm&lt;/b&gt;&lt;/font&gt;?" style="rhombus;whiteSpace=wrap;html=1;shadow=0;fontFamily=Times New Roman;fontSize=12;align=center;strokeWidth=1;spacing=0;spacingTop=0;" parent="6HZ1eUQJFXA4Xak1XK23-61" vertex="1">
          <mxGeometry x="439" y="650" width="125" height="110" as="geometry" />
        </mxCell>
        <mxCell id="6HZ1eUQJFXA4Xak1XK23-116" style="edgeStyle=orthogonalEdgeStyle;shape=connector;rounded=0;orthogonalLoop=1;jettySize=auto;html=1;exitX=0.5;exitY=1;exitDx=0;exitDy=0;labelBackgroundColor=default;strokeColor=default;fontFamily=Times New Roman;fontSize=12;fontColor=default;endArrow=none;endFill=0;endSize=8;jumpSize=3;" parent="6HZ1eUQJFXA4Xak1XK23-61" source="6HZ1eUQJFXA4Xak1XK23-87" edge="1">
          <mxGeometry relative="1" as="geometry">
            <mxPoint x="150" y="590" as="targetPoint" />
            <Array as="points">
              <mxPoint x="604" y="900" />
              <mxPoint x="268" y="900" />
              <mxPoint x="268" y="590" />
            </Array>
          </mxGeometry>
        </mxCell>
        <mxCell id="6HZ1eUQJFXA4Xak1XK23-122" value="NE" style="edgeLabel;html=1;align=center;verticalAlign=middle;resizable=0;points=[];fontSize=12;fontFamily=Times New Roman;fontColor=default;" parent="6HZ1eUQJFXA4Xak1XK23-116" vertex="1" connectable="0">
          <mxGeometry x="-0.4204" y="-3" relative="1" as="geometry">
            <mxPoint x="63" y="-7" as="offset" />
          </mxGeometry>
        </mxCell>
        <mxCell id="6HZ1eUQJFXA4Xak1XK23-87" value="Má daný příkaz&lt;br&gt;operátor&amp;nbsp; &lt;font face=&quot;Lucida Console&quot;&gt;&lt;b&gt;Do&lt;/b&gt;&lt;/font&gt;&amp;nbsp;a&lt;br&gt;je použit pro některý&lt;br&gt;získaný XObject?" style="rhombus;whiteSpace=wrap;html=1;shadow=0;fontFamily=Times New Roman;fontSize=12;align=center;strokeWidth=1;spacing=0;spacingTop=0;" parent="6HZ1eUQJFXA4Xak1XK23-61" vertex="1">
          <mxGeometry x="529" y="750" width="150" height="140" as="geometry" />
        </mxCell>
        <mxCell id="6HZ1eUQJFXA4Xak1XK23-119" style="edgeStyle=orthogonalEdgeStyle;shape=connector;rounded=0;orthogonalLoop=1;jettySize=auto;html=1;exitX=1;exitY=0.5;exitDx=0;exitDy=0;labelBackgroundColor=default;strokeColor=default;fontFamily=Times New Roman;fontSize=12;fontColor=default;endArrow=none;endFill=0;endSize=8;" parent="6HZ1eUQJFXA4Xak1XK23-61" source="6HZ1eUQJFXA4Xak1XK23-89" edge="1">
          <mxGeometry relative="1" as="geometry">
            <mxPoint x="684" y="509.8524590163935" as="targetPoint" />
          </mxGeometry>
        </mxCell>
        <mxCell id="6HZ1eUQJFXA4Xak1XK23-89" value="Ulož CTM do zásobníku" style="rounded=1;whiteSpace=wrap;html=1;fontSize=12;glass=0;strokeWidth=1;shadow=0;fontFamily=Times New Roman;" parent="6HZ1eUQJFXA4Xak1XK23-61" vertex="1">
          <mxGeometry x="439" y="490" width="130" height="40" as="geometry" />
        </mxCell>
        <mxCell id="6HZ1eUQJFXA4Xak1XK23-90" style="edgeStyle=orthogonalEdgeStyle;shape=connector;rounded=0;orthogonalLoop=1;jettySize=auto;html=1;exitX=1;exitY=0.5;exitDx=0;exitDy=0;entryX=0;entryY=0.5;entryDx=0;entryDy=0;labelBackgroundColor=default;strokeColor=default;fontFamily=Times New Roman;fontSize=12;fontColor=default;endArrow=block;endFill=0;endSize=8;" parent="6HZ1eUQJFXA4Xak1XK23-61" source="6HZ1eUQJFXA4Xak1XK23-81" target="6HZ1eUQJFXA4Xak1XK23-93" edge="1">
          <mxGeometry relative="1" as="geometry">
            <mxPoint x="504.5" y="565" as="sourcePoint" />
          </mxGeometry>
        </mxCell>
        <mxCell id="6HZ1eUQJFXA4Xak1XK23-91" value="ANO" style="edgeLabel;html=1;align=center;verticalAlign=middle;resizable=0;points=[];fontSize=12;fontFamily=Times New Roman;fontColor=default;" parent="6HZ1eUQJFXA4Xak1XK23-90" vertex="1" connectable="0">
          <mxGeometry x="0.2899" y="1" relative="1" as="geometry">
            <mxPoint x="-9" y="-19" as="offset" />
          </mxGeometry>
        </mxCell>
        <mxCell id="6HZ1eUQJFXA4Xak1XK23-118" style="edgeStyle=orthogonalEdgeStyle;shape=connector;rounded=0;orthogonalLoop=1;jettySize=auto;html=1;exitX=1;exitY=0.5;exitDx=0;exitDy=0;labelBackgroundColor=default;strokeColor=default;fontFamily=Times New Roman;fontSize=12;fontColor=default;endArrow=none;endFill=0;endSize=8;" parent="6HZ1eUQJFXA4Xak1XK23-61" source="6HZ1eUQJFXA4Xak1XK23-93" edge="1">
          <mxGeometry relative="1" as="geometry">
            <mxPoint x="684" y="609.9611650485436" as="targetPoint" />
          </mxGeometry>
        </mxCell>
        <mxCell id="6HZ1eUQJFXA4Xak1XK23-93" value="Přiřaď CTM poslední uloženou hodnotu zásobníku" style="rounded=1;whiteSpace=wrap;html=1;fontSize=12;glass=0;strokeWidth=1;shadow=0;fontFamily=Times New Roman;" parent="6HZ1eUQJFXA4Xak1XK23-61" vertex="1">
          <mxGeometry x="511.5" y="590" width="130" height="40" as="geometry" />
        </mxCell>
        <mxCell id="6HZ1eUQJFXA4Xak1XK23-94" style="edgeStyle=orthogonalEdgeStyle;shape=connector;rounded=0;orthogonalLoop=1;jettySize=auto;html=1;exitX=1;exitY=0.5;exitDx=0;exitDy=0;entryX=0;entryY=0.5;entryDx=0;entryDy=0;labelBackgroundColor=default;strokeColor=default;fontFamily=Times New Roman;fontSize=12;fontColor=default;endArrow=block;endFill=0;endSize=8;" parent="6HZ1eUQJFXA4Xak1XK23-61" source="6HZ1eUQJFXA4Xak1XK23-84" target="6HZ1eUQJFXA4Xak1XK23-97" edge="1">
          <mxGeometry relative="1" as="geometry">
            <mxPoint x="694.5" y="565" as="sourcePoint" />
          </mxGeometry>
        </mxCell>
        <mxCell id="6HZ1eUQJFXA4Xak1XK23-95" value="ANO" style="edgeLabel;html=1;align=center;verticalAlign=middle;resizable=0;points=[];fontSize=12;fontFamily=Times New Roman;fontColor=default;" parent="6HZ1eUQJFXA4Xak1XK23-94" vertex="1" connectable="0">
          <mxGeometry x="0.2899" y="1" relative="1" as="geometry">
            <mxPoint x="-11" y="-9" as="offset" />
          </mxGeometry>
        </mxCell>
        <mxCell id="6HZ1eUQJFXA4Xak1XK23-117" style="edgeStyle=orthogonalEdgeStyle;shape=connector;rounded=0;orthogonalLoop=1;jettySize=auto;html=1;exitX=0.5;exitY=0;exitDx=0;exitDy=0;labelBackgroundColor=default;strokeColor=default;fontFamily=Times New Roman;fontSize=12;fontColor=default;endArrow=block;endFill=0;endSize=8;" parent="6HZ1eUQJFXA4Xak1XK23-61" source="6HZ1eUQJFXA4Xak1XK23-97" edge="1">
          <mxGeometry relative="1" as="geometry">
            <mxPoint x="148" y="310" as="targetPoint" />
            <Array as="points">
              <mxPoint x="684" y="310" />
            </Array>
          </mxGeometry>
        </mxCell>
        <mxCell id="6HZ1eUQJFXA4Xak1XK23-97" value="CTM vynásob zleva operandem příkazu a ulož do CTM" style="rounded=1;whiteSpace=wrap;html=1;fontSize=12;glass=0;strokeWidth=1;shadow=0;fontFamily=Times New Roman;" parent="6HZ1eUQJFXA4Xak1XK23-61" vertex="1">
          <mxGeometry x="619" y="685" width="130" height="40" as="geometry" />
        </mxCell>
        <mxCell id="6HZ1eUQJFXA4Xak1XK23-98" style="edgeStyle=orthogonalEdgeStyle;shape=connector;rounded=0;orthogonalLoop=1;jettySize=auto;html=1;exitX=1;exitY=0.5;exitDx=0;exitDy=0;labelBackgroundColor=default;strokeColor=default;fontFamily=Times New Roman;fontSize=12;fontColor=default;endArrow=block;endFill=0;endSize=8;entryX=0.5;entryY=0;entryDx=0;entryDy=0;" parent="6HZ1eUQJFXA4Xak1XK23-61" source="6HZ1eUQJFXA4Xak1XK23-87" target="6HZ1eUQJFXA4Xak1XK23-105" edge="1">
          <mxGeometry relative="1" as="geometry">
            <mxPoint x="897" y="565" as="sourcePoint" />
            <mxPoint x="881.5" y="615" as="targetPoint" />
            <Array as="points">
              <mxPoint x="694" y="820" />
              <mxPoint x="694" y="890" />
              <mxPoint x="673" y="890" />
            </Array>
          </mxGeometry>
        </mxCell>
        <mxCell id="6HZ1eUQJFXA4Xak1XK23-99" value="ANO" style="edgeLabel;html=1;align=center;verticalAlign=middle;resizable=0;points=[];fontSize=12;fontFamily=Times New Roman;fontColor=default;" parent="6HZ1eUQJFXA4Xak1XK23-98" vertex="1" connectable="0">
          <mxGeometry x="0.2899" y="1" relative="1" as="geometry">
            <mxPoint x="-12" y="-21" as="offset" />
          </mxGeometry>
        </mxCell>
        <mxCell id="6HZ1eUQJFXA4Xak1XK23-100" style="edgeStyle=orthogonalEdgeStyle;shape=connector;rounded=0;orthogonalLoop=1;jettySize=auto;html=1;exitX=0.5;exitY=0;exitDx=0;exitDy=0;entryX=0.5;entryY=1;entryDx=0;entryDy=0;labelBackgroundColor=default;strokeColor=default;fontFamily=Times New Roman;fontSize=12;fontColor=default;endArrow=block;endFill=0;endSize=8;" parent="6HZ1eUQJFXA4Xak1XK23-61" source="6HZ1eUQJFXA4Xak1XK23-101" target="6HZ1eUQJFXA4Xak1XK23-109" edge="1">
          <mxGeometry relative="1" as="geometry" />
        </mxCell>
        <mxCell id="6HZ1eUQJFXA4Xak1XK23-101" value="CTM vynásob zprava transformační maticí stránky a ulož jako matici obrázku" style="rounded=1;whiteSpace=wrap;html=1;fontSize=12;glass=0;strokeWidth=1;shadow=0;fontFamily=Times New Roman;" parent="6HZ1eUQJFXA4Xak1XK23-61" vertex="1">
          <mxGeometry x="86.5" y="920" width="130" height="60" as="geometry" />
        </mxCell>
        <mxCell id="6HZ1eUQJFXA4Xak1XK23-102" style="edgeStyle=orthogonalEdgeStyle;shape=connector;rounded=0;orthogonalLoop=1;jettySize=auto;html=1;exitX=0;exitY=0.5;exitDx=0;exitDy=0;entryX=1;entryY=0.5;entryDx=0;entryDy=0;labelBackgroundColor=default;strokeColor=default;fontFamily=Times New Roman;fontSize=12;fontColor=default;endArrow=block;endFill=0;endSize=8;" parent="6HZ1eUQJFXA4Xak1XK23-61" source="6HZ1eUQJFXA4Xak1XK23-103" target="6HZ1eUQJFXA4Xak1XK23-101" edge="1">
          <mxGeometry relative="1" as="geometry" />
        </mxCell>
        <mxCell id="6HZ1eUQJFXA4Xak1XK23-103" value="Získej původní&lt;br&gt;souřadnice obrázku&amp;nbsp;" style="rounded=1;whiteSpace=wrap;html=1;fontSize=12;glass=0;strokeWidth=1;shadow=0;fontFamily=Times New Roman;" parent="6HZ1eUQJFXA4Xak1XK23-61" vertex="1">
          <mxGeometry x="257.5" y="930" width="130" height="40" as="geometry" />
        </mxCell>
        <mxCell id="6HZ1eUQJFXA4Xak1XK23-104" style="edgeStyle=orthogonalEdgeStyle;shape=connector;rounded=0;orthogonalLoop=1;jettySize=auto;html=1;exitX=0;exitY=0.5;exitDx=0;exitDy=0;entryX=1;entryY=0.5;entryDx=0;entryDy=0;labelBackgroundColor=default;strokeColor=default;fontFamily=Times New Roman;fontSize=12;fontColor=default;endArrow=block;endFill=0;endSize=8;" parent="6HZ1eUQJFXA4Xak1XK23-61" source="6HZ1eUQJFXA4Xak1XK23-105" target="6HZ1eUQJFXA4Xak1XK23-107" edge="1">
          <mxGeometry relative="1" as="geometry" />
        </mxCell>
        <mxCell id="6HZ1eUQJFXA4Xak1XK23-105" value="Ulož CTM do zásobníku" style="rounded=1;whiteSpace=wrap;html=1;fontSize=12;glass=0;strokeWidth=1;shadow=0;fontFamily=Times New Roman;" parent="6HZ1eUQJFXA4Xak1XK23-61" vertex="1">
          <mxGeometry x="608" y="930" width="130" height="40" as="geometry" />
        </mxCell>
        <mxCell id="6HZ1eUQJFXA4Xak1XK23-106" style="edgeStyle=orthogonalEdgeStyle;shape=connector;rounded=0;orthogonalLoop=1;jettySize=auto;html=1;exitX=0;exitY=0.5;exitDx=0;exitDy=0;entryX=1;entryY=0.5;entryDx=0;entryDy=0;labelBackgroundColor=default;strokeColor=default;fontFamily=Times New Roman;fontSize=12;fontColor=default;endArrow=block;endFill=0;endSize=8;" parent="6HZ1eUQJFXA4Xak1XK23-61" source="6HZ1eUQJFXA4Xak1XK23-107" target="6HZ1eUQJFXA4Xak1XK23-103" edge="1">
          <mxGeometry relative="1" as="geometry" />
        </mxCell>
        <mxCell id="6HZ1eUQJFXA4Xak1XK23-107" value="CTM vynásob zleva maticí obrázku a ulož do CTM" style="rounded=1;whiteSpace=wrap;html=1;fontSize=12;glass=0;strokeWidth=1;shadow=0;fontFamily=Times New Roman;" parent="6HZ1eUQJFXA4Xak1XK23-61" vertex="1">
          <mxGeometry x="434" y="930" width="130" height="40" as="geometry" />
        </mxCell>
        <mxCell id="6HZ1eUQJFXA4Xak1XK23-114" style="edgeStyle=orthogonalEdgeStyle;shape=connector;rounded=0;orthogonalLoop=1;jettySize=auto;html=1;exitX=0.5;exitY=0;exitDx=0;exitDy=0;entryX=0.5;entryY=1;entryDx=0;entryDy=0;labelBackgroundColor=default;strokeColor=default;fontFamily=Times New Roman;fontSize=12;fontColor=default;endArrow=block;endFill=0;endSize=8;" parent="6HZ1eUQJFXA4Xak1XK23-61" source="6HZ1eUQJFXA4Xak1XK23-109" target="6HZ1eUQJFXA4Xak1XK23-111" edge="1">
          <mxGeometry relative="1" as="geometry" />
        </mxCell>
        <mxCell id="6HZ1eUQJFXA4Xak1XK23-109" value="Získej souřadnice obrázku na aktuální stránce a ulož" style="rounded=1;whiteSpace=wrap;html=1;fontSize=12;glass=0;strokeWidth=1;shadow=0;fontFamily=Times New Roman;" parent="6HZ1eUQJFXA4Xak1XK23-61" vertex="1">
          <mxGeometry x="86.5" y="840" width="130" height="40" as="geometry" />
        </mxCell>
        <mxCell id="6HZ1eUQJFXA4Xak1XK23-115" style="edgeStyle=orthogonalEdgeStyle;shape=connector;rounded=0;orthogonalLoop=1;jettySize=auto;html=1;exitX=0.5;exitY=0;exitDx=0;exitDy=0;labelBackgroundColor=default;strokeColor=default;fontFamily=Times New Roman;fontSize=12;fontColor=default;endArrow=block;endFill=0;endSize=8;" parent="6HZ1eUQJFXA4Xak1XK23-61" source="6HZ1eUQJFXA4Xak1XK23-111" edge="1">
          <mxGeometry relative="1" as="geometry">
            <mxPoint x="148" y="310" as="targetPoint" />
            <Array as="points">
              <mxPoint x="151" y="590" />
              <mxPoint x="78" y="590" />
              <mxPoint x="78" y="310" />
            </Array>
          </mxGeometry>
        </mxCell>
        <mxCell id="6HZ1eUQJFXA4Xak1XK23-111" value="Přiřaď CTM poslední uloženou hodnotu zásobníku" style="rounded=1;whiteSpace=wrap;html=1;fontSize=12;glass=0;strokeWidth=1;shadow=0;fontFamily=Times New Roman;" parent="6HZ1eUQJFXA4Xak1XK23-61" vertex="1">
          <mxGeometry x="86.5" y="760" width="130" height="40" as="geometry" />
        </mxCell>
        <mxCell id="6HZ1eUQJFXA4Xak1XK23-124" value="Vrstva bez názvu" parent="WIyWlLk6GJQsqaUBKTNV-0" />
        <mxCell id="6HZ1eUQJFXA4Xak1XK23-125" style="edgeStyle=orthogonalEdgeStyle;rounded=0;orthogonalLoop=1;jettySize=auto;html=1;exitX=0.5;exitY=1;exitDx=0;exitDy=0;entryX=0.5;entryY=0;entryDx=0;entryDy=0;endArrow=block;endFill=0;endSize=8;fontSize=14;" parent="6HZ1eUQJFXA4Xak1XK23-124" source="6HZ1eUQJFXA4Xak1XK23-126" target="6HZ1eUQJFXA4Xak1XK23-131" edge="1">
          <mxGeometry relative="1" as="geometry" />
        </mxCell>
        <mxCell id="6HZ1eUQJFXA4Xak1XK23-126" value="Inicializuj CTM jako jednotkovou matici" style="rounded=1;whiteSpace=wrap;html=1;fontSize=14;glass=0;strokeWidth=1;shadow=0;fontFamily=Times New Roman;fillColor=#dae8fc;strokeColor=#6c8ebf;" parent="6HZ1eUQJFXA4Xak1XK23-124" vertex="1">
          <mxGeometry x="84" y="240" width="130" height="40" as="geometry" />
        </mxCell>
        <mxCell id="6HZ1eUQJFXA4Xak1XK23-127" style="edgeStyle=orthogonalEdgeStyle;rounded=0;orthogonalLoop=1;jettySize=auto;html=1;exitX=1;exitY=0.5;exitDx=0;exitDy=0;entryX=0;entryY=0.5;entryDx=0;entryDy=0;jumpSize=6;endArrow=block;endFill=0;endSize=8;fontSize=14;" parent="6HZ1eUQJFXA4Xak1XK23-124" source="6HZ1eUQJFXA4Xak1XK23-131" target="6HZ1eUQJFXA4Xak1XK23-132" edge="1">
          <mxGeometry relative="1" as="geometry">
            <mxPoint x="149" y="510" as="targetPoint" />
          </mxGeometry>
        </mxCell>
        <mxCell id="6HZ1eUQJFXA4Xak1XK23-128" value="&lt;font style=&quot;font-size: 14px;&quot; face=&quot;Times New Roman&quot;&gt;NE&lt;/font&gt;" style="edgeLabel;html=1;align=center;verticalAlign=middle;resizable=0;points=[];fontSize=14;" parent="6HZ1eUQJFXA4Xak1XK23-127" vertex="1" connectable="0">
          <mxGeometry x="0.1872" relative="1" as="geometry">
            <mxPoint x="-12" y="-15" as="offset" />
          </mxGeometry>
        </mxCell>
        <mxCell id="6HZ1eUQJFXA4Xak1XK23-129" style="edgeStyle=orthogonalEdgeStyle;shape=connector;rounded=0;orthogonalLoop=1;jettySize=auto;html=1;exitX=0.5;exitY=1;exitDx=0;exitDy=0;entryX=0.5;entryY=0;entryDx=0;entryDy=0;labelBackgroundColor=default;strokeColor=default;fontFamily=Times New Roman;fontSize=14;fontColor=default;endArrow=block;endFill=0;endSize=8;" parent="6HZ1eUQJFXA4Xak1XK23-124" source="6HZ1eUQJFXA4Xak1XK23-131" target="6HZ1eUQJFXA4Xak1XK23-136" edge="1">
          <mxGeometry relative="1" as="geometry" />
        </mxCell>
        <mxCell id="6HZ1eUQJFXA4Xak1XK23-130" value="ANO" style="edgeLabel;html=1;align=center;verticalAlign=middle;resizable=0;points=[];fontSize=14;fontFamily=Times New Roman;fontColor=default;" parent="6HZ1eUQJFXA4Xak1XK23-129" vertex="1" connectable="0">
          <mxGeometry x="-0.3512" relative="1" as="geometry">
            <mxPoint x="20" y="2" as="offset" />
          </mxGeometry>
        </mxCell>
        <mxCell id="6HZ1eUQJFXA4Xak1XK23-131" value="Zbývají příkazy&lt;br style=&quot;font-size: 14px;&quot;&gt;uvnitř content&lt;br style=&quot;font-size: 14px;&quot;&gt;streamu?" style="rhombus;whiteSpace=wrap;html=1;shadow=0;fontFamily=Times New Roman;fontSize=14;align=center;strokeWidth=1;spacing=0;spacingTop=12;fillColor=#f8cecc;strokeColor=#b85450;" parent="6HZ1eUQJFXA4Xak1XK23-124" vertex="1">
          <mxGeometry x="86.5" y="340" width="125" height="110" as="geometry" />
        </mxCell>
        <mxCell id="6HZ1eUQJFXA4Xak1XK23-178" style="edgeStyle=orthogonalEdgeStyle;shape=connector;rounded=0;orthogonalLoop=1;jettySize=auto;html=1;exitX=1;exitY=0.5;exitDx=0;exitDy=0;entryX=0;entryY=0.5;entryDx=0;entryDy=0;entryPerimeter=0;labelBackgroundColor=default;strokeColor=default;fontFamily=Times New Roman;fontSize=14;fontColor=default;endArrow=block;endFill=0;endSize=8;" parent="6HZ1eUQJFXA4Xak1XK23-124" source="6HZ1eUQJFXA4Xak1XK23-132" target="6HZ1eUQJFXA4Xak1XK23-177" edge="1">
          <mxGeometry relative="1" as="geometry" />
        </mxCell>
        <mxCell id="6HZ1eUQJFXA4Xak1XK23-132" value="Seřaď všechny uložené souřadnice, aby byly shora dolů a zleva doprava" style="rounded=1;whiteSpace=wrap;html=1;fontSize=14;glass=0;strokeWidth=1;shadow=0;fontFamily=Times New Roman;fillColor=#dae8fc;strokeColor=#6c8ebf;" parent="6HZ1eUQJFXA4Xak1XK23-124" vertex="1">
          <mxGeometry x="260" y="365" width="161" height="60" as="geometry" />
        </mxCell>
        <mxCell id="6HZ1eUQJFXA4Xak1XK23-133" style="edgeStyle=orthogonalEdgeStyle;rounded=0;orthogonalLoop=1;jettySize=auto;html=1;exitX=0;exitY=0.5;exitDx=0;exitDy=0;entryX=1;entryY=0.5;entryDx=0;entryDy=0;endArrow=block;endFill=0;endSize=8;fontSize=14;" parent="6HZ1eUQJFXA4Xak1XK23-124" source="6HZ1eUQJFXA4Xak1XK23-134" target="6HZ1eUQJFXA4Xak1XK23-126" edge="1">
          <mxGeometry relative="1" as="geometry" />
        </mxCell>
        <mxCell id="6HZ1eUQJFXA4Xak1XK23-134" value="Získej všechny objekty XObject evokované aktuální stránkou" style="rounded=1;whiteSpace=wrap;html=1;fontSize=14;glass=0;strokeWidth=1;shadow=0;fontFamily=Times New Roman;fillColor=#dae8fc;strokeColor=#6c8ebf;" parent="6HZ1eUQJFXA4Xak1XK23-124" vertex="1">
          <mxGeometry x="274" y="235" width="140" height="50" as="geometry" />
        </mxCell>
        <mxCell id="6HZ1eUQJFXA4Xak1XK23-135" style="edgeStyle=orthogonalEdgeStyle;shape=connector;rounded=0;orthogonalLoop=1;jettySize=auto;html=1;exitX=1;exitY=0.5;exitDx=0;exitDy=0;entryX=0;entryY=0.5;entryDx=0;entryDy=0;labelBackgroundColor=default;strokeColor=default;fontFamily=Helvetica;fontSize=14;fontColor=default;endArrow=block;endFill=0;endSize=8;" parent="6HZ1eUQJFXA4Xak1XK23-124" source="6HZ1eUQJFXA4Xak1XK23-136" target="6HZ1eUQJFXA4Xak1XK23-141" edge="1">
          <mxGeometry relative="1" as="geometry">
            <mxPoint x="279.00000000000045" y="495" as="sourcePoint" />
          </mxGeometry>
        </mxCell>
        <mxCell id="6HZ1eUQJFXA4Xak1XK23-136" value="Vezmi další příkaz" style="rounded=1;whiteSpace=wrap;html=1;fontSize=14;glass=0;strokeWidth=1;shadow=0;fontFamily=Times New Roman;fillColor=#dae8fc;strokeColor=#6c8ebf;" parent="6HZ1eUQJFXA4Xak1XK23-124" vertex="1">
          <mxGeometry x="96.5" y="490" width="105" height="40" as="geometry" />
        </mxCell>
        <mxCell id="6HZ1eUQJFXA4Xak1XK23-137" style="edgeStyle=orthogonalEdgeStyle;shape=connector;rounded=0;orthogonalLoop=1;jettySize=auto;html=1;entryX=0;entryY=0.5;entryDx=0;entryDy=0;labelBackgroundColor=default;strokeColor=default;fontFamily=Times New Roman;fontSize=14;fontColor=default;endArrow=block;endFill=0;endSize=8;exitX=0.5;exitY=1;exitDx=0;exitDy=0;" parent="6HZ1eUQJFXA4Xak1XK23-124" source="6HZ1eUQJFXA4Xak1XK23-141" target="6HZ1eUQJFXA4Xak1XK23-144" edge="1">
          <mxGeometry relative="1" as="geometry">
            <mxPoint x="319" y="570" as="sourcePoint" />
            <Array as="points">
              <mxPoint x="302" y="595" />
            </Array>
          </mxGeometry>
        </mxCell>
        <mxCell id="6HZ1eUQJFXA4Xak1XK23-138" value="NE" style="edgeLabel;html=1;align=center;verticalAlign=middle;resizable=0;points=[];fontSize=14;fontFamily=Times New Roman;fontColor=default;" parent="6HZ1eUQJFXA4Xak1XK23-137" vertex="1" connectable="0">
          <mxGeometry x="0.2722" y="-1" relative="1" as="geometry">
            <mxPoint x="-12" y="-16" as="offset" />
          </mxGeometry>
        </mxCell>
        <mxCell id="6HZ1eUQJFXA4Xak1XK23-139" style="edgeStyle=orthogonalEdgeStyle;shape=connector;rounded=0;orthogonalLoop=1;jettySize=auto;html=1;exitX=1;exitY=0.5;exitDx=0;exitDy=0;entryX=0;entryY=0.5;entryDx=0;entryDy=0;labelBackgroundColor=default;strokeColor=default;fontFamily=Times New Roman;fontSize=14;fontColor=default;endArrow=block;endFill=0;endSize=8;" parent="6HZ1eUQJFXA4Xak1XK23-124" source="6HZ1eUQJFXA4Xak1XK23-141" target="6HZ1eUQJFXA4Xak1XK23-152" edge="1">
          <mxGeometry relative="1" as="geometry">
            <mxPoint x="614" y="350" as="sourcePoint" />
          </mxGeometry>
        </mxCell>
        <mxCell id="6HZ1eUQJFXA4Xak1XK23-140" value="ANO" style="edgeLabel;html=1;align=center;verticalAlign=middle;resizable=0;points=[];fontSize=14;fontFamily=Times New Roman;fontColor=default;" parent="6HZ1eUQJFXA4Xak1XK23-139" vertex="1" connectable="0">
          <mxGeometry x="0.2899" y="1" relative="1" as="geometry">
            <mxPoint x="-17" y="-9" as="offset" />
          </mxGeometry>
        </mxCell>
        <mxCell id="6HZ1eUQJFXA4Xak1XK23-141" value="Má daný příkaz&lt;br style=&quot;font-size: 14px;&quot;&gt;operátor&amp;nbsp; &lt;b style=&quot;font-family: &amp;quot;Lucida Console&amp;quot;; font-size: 14px;&quot;&gt;q&lt;/b&gt;?" style="rhombus;whiteSpace=wrap;html=1;shadow=0;fontFamily=Times New Roman;fontSize=14;align=center;strokeWidth=1;spacing=0;spacingTop=3;fillColor=#f8cecc;strokeColor=#b85450;" parent="6HZ1eUQJFXA4Xak1XK23-124" vertex="1">
          <mxGeometry x="240" y="455" width="125" height="110" as="geometry" />
        </mxCell>
        <mxCell id="6HZ1eUQJFXA4Xak1XK23-142" style="edgeStyle=orthogonalEdgeStyle;shape=connector;rounded=0;orthogonalLoop=1;jettySize=auto;html=1;exitX=0.5;exitY=1;exitDx=0;exitDy=0;entryX=0;entryY=0.5;entryDx=0;entryDy=0;labelBackgroundColor=default;strokeColor=default;fontFamily=Times New Roman;fontSize=14;fontColor=default;endArrow=block;endFill=0;endSize=8;" parent="6HZ1eUQJFXA4Xak1XK23-124" source="6HZ1eUQJFXA4Xak1XK23-144" target="6HZ1eUQJFXA4Xak1XK23-147" edge="1">
          <mxGeometry relative="1" as="geometry">
            <Array as="points">
              <mxPoint x="383" y="685" />
            </Array>
          </mxGeometry>
        </mxCell>
        <mxCell id="6HZ1eUQJFXA4Xak1XK23-143" value="NE" style="edgeLabel;html=1;align=center;verticalAlign=middle;resizable=0;points=[];fontSize=14;fontFamily=Times New Roman;fontColor=default;" parent="6HZ1eUQJFXA4Xak1XK23-142" vertex="1" connectable="0">
          <mxGeometry x="0.3279" relative="1" as="geometry">
            <mxPoint x="-16" y="-15" as="offset" />
          </mxGeometry>
        </mxCell>
        <mxCell id="6HZ1eUQJFXA4Xak1XK23-144" value="Má daný příkaz&lt;br style=&quot;font-size: 14px;&quot;&gt;operátor&amp;nbsp; &lt;font face=&quot;Lucida Console&quot; style=&quot;font-size: 14px;&quot;&gt;&lt;b style=&quot;font-size: 14px;&quot;&gt;Q&lt;/b&gt;&lt;/font&gt;?" style="rhombus;whiteSpace=wrap;html=1;shadow=0;fontFamily=Times New Roman;fontSize=14;align=center;strokeWidth=1;spacing=0;spacingTop=3;fillColor=#f8cecc;strokeColor=#b85450;" parent="6HZ1eUQJFXA4Xak1XK23-124" vertex="1">
          <mxGeometry x="320" y="540" width="125" height="110" as="geometry" />
        </mxCell>
        <mxCell id="6HZ1eUQJFXA4Xak1XK23-145" style="edgeStyle=orthogonalEdgeStyle;shape=connector;rounded=0;orthogonalLoop=1;jettySize=auto;html=1;exitX=0.5;exitY=1;exitDx=0;exitDy=0;entryX=0;entryY=0.5;entryDx=0;entryDy=0;labelBackgroundColor=default;strokeColor=default;fontFamily=Times New Roman;fontSize=14;fontColor=default;endArrow=block;endFill=0;endSize=8;" parent="6HZ1eUQJFXA4Xak1XK23-124" source="6HZ1eUQJFXA4Xak1XK23-147" target="6HZ1eUQJFXA4Xak1XK23-150" edge="1">
          <mxGeometry relative="1" as="geometry">
            <Array as="points">
              <mxPoint x="463" y="760" />
              <mxPoint x="463" y="760" />
              <mxPoint x="463" y="790" />
            </Array>
          </mxGeometry>
        </mxCell>
        <mxCell id="6HZ1eUQJFXA4Xak1XK23-146" value="NE" style="edgeLabel;html=1;align=center;verticalAlign=middle;resizable=0;points=[];fontSize=14;fontFamily=Times New Roman;fontColor=default;" parent="6HZ1eUQJFXA4Xak1XK23-145" vertex="1" connectable="0">
          <mxGeometry x="0.201" relative="1" as="geometry">
            <mxPoint x="-12" y="-10" as="offset" />
          </mxGeometry>
        </mxCell>
        <mxCell id="6HZ1eUQJFXA4Xak1XK23-147" value="Má daný příkaz&lt;br style=&quot;font-size: 14px;&quot;&gt;operátor&amp;nbsp; &lt;font face=&quot;Lucida Console&quot; style=&quot;font-size: 14px;&quot;&gt;&lt;b style=&quot;font-size: 14px;&quot;&gt;cm&lt;/b&gt;&lt;/font&gt;?" style="rhombus;whiteSpace=wrap;html=1;shadow=0;fontFamily=Times New Roman;fontSize=14;align=center;strokeWidth=1;spacing=0;spacingTop=3;fillColor=#f8cecc;strokeColor=#b85450;" parent="6HZ1eUQJFXA4Xak1XK23-124" vertex="1">
          <mxGeometry x="400" y="630" width="125" height="110" as="geometry" />
        </mxCell>
        <mxCell id="6HZ1eUQJFXA4Xak1XK23-148" style="edgeStyle=orthogonalEdgeStyle;shape=connector;rounded=0;orthogonalLoop=1;jettySize=auto;html=1;exitX=0.5;exitY=1;exitDx=0;exitDy=0;labelBackgroundColor=default;strokeColor=default;fontFamily=Times New Roman;fontSize=14;fontColor=default;endArrow=none;endFill=0;endSize=8;jumpSize=3;" parent="6HZ1eUQJFXA4Xak1XK23-124" source="6HZ1eUQJFXA4Xak1XK23-150" edge="1">
          <mxGeometry relative="1" as="geometry">
            <mxPoint x="150" y="590" as="targetPoint" />
            <Array as="points">
              <mxPoint x="560" y="890" />
              <mxPoint x="268" y="890" />
              <mxPoint x="268" y="590" />
            </Array>
          </mxGeometry>
        </mxCell>
        <mxCell id="6HZ1eUQJFXA4Xak1XK23-149" value="NE" style="edgeLabel;html=1;align=center;verticalAlign=middle;resizable=0;points=[];fontSize=14;fontFamily=Times New Roman;fontColor=default;" parent="6HZ1eUQJFXA4Xak1XK23-148" vertex="1" connectable="0">
          <mxGeometry x="-0.4204" y="-3" relative="1" as="geometry">
            <mxPoint x="155" y="-17" as="offset" />
          </mxGeometry>
        </mxCell>
        <mxCell id="6HZ1eUQJFXA4Xak1XK23-150" value="Má daný příkaz&lt;br style=&quot;font-size: 14px;&quot;&gt;operátor&amp;nbsp; &lt;font face=&quot;Lucida Console&quot; style=&quot;font-size: 14px;&quot;&gt;&lt;b style=&quot;font-size: 14px;&quot;&gt;Do&lt;/b&gt;&lt;/font&gt;&amp;nbsp;a je použit&lt;br&gt;pro některý získaný&lt;br&gt;XObject?" style="rhombus;whiteSpace=wrap;html=1;shadow=0;fontFamily=Times New Roman;fontSize=14;align=center;strokeWidth=1;spacing=0;spacingTop=6;fillColor=#f8cecc;strokeColor=#b85450;" parent="6HZ1eUQJFXA4Xak1XK23-124" vertex="1">
          <mxGeometry x="480" y="720" width="160" height="140" as="geometry" />
        </mxCell>
        <mxCell id="6HZ1eUQJFXA4Xak1XK23-151" style="edgeStyle=orthogonalEdgeStyle;shape=connector;rounded=0;orthogonalLoop=1;jettySize=auto;html=1;exitX=1;exitY=0.5;exitDx=0;exitDy=0;labelBackgroundColor=default;strokeColor=default;fontFamily=Times New Roman;fontSize=14;fontColor=default;endArrow=none;endFill=0;endSize=8;" parent="6HZ1eUQJFXA4Xak1XK23-124" source="6HZ1eUQJFXA4Xak1XK23-152" edge="1">
          <mxGeometry relative="1" as="geometry">
            <mxPoint x="660" y="510" as="targetPoint" />
          </mxGeometry>
        </mxCell>
        <mxCell id="6HZ1eUQJFXA4Xak1XK23-152" value="Ulož CTM do zásobníku" style="rounded=1;whiteSpace=wrap;html=1;fontSize=14;glass=0;strokeWidth=1;shadow=0;fontFamily=Times New Roman;fillColor=#dae8fc;strokeColor=#6c8ebf;" parent="6HZ1eUQJFXA4Xak1XK23-124" vertex="1">
          <mxGeometry x="414" y="490" width="130" height="40" as="geometry" />
        </mxCell>
        <mxCell id="6HZ1eUQJFXA4Xak1XK23-153" style="edgeStyle=orthogonalEdgeStyle;shape=connector;rounded=0;orthogonalLoop=1;jettySize=auto;html=1;exitX=1;exitY=0.5;exitDx=0;exitDy=0;entryX=0;entryY=0.5;entryDx=0;entryDy=0;labelBackgroundColor=default;strokeColor=default;fontFamily=Times New Roman;fontSize=14;fontColor=default;endArrow=block;endFill=0;endSize=8;" parent="6HZ1eUQJFXA4Xak1XK23-124" source="6HZ1eUQJFXA4Xak1XK23-144" target="6HZ1eUQJFXA4Xak1XK23-156" edge="1">
          <mxGeometry relative="1" as="geometry">
            <mxPoint x="504.5" y="565" as="sourcePoint" />
          </mxGeometry>
        </mxCell>
        <mxCell id="6HZ1eUQJFXA4Xak1XK23-154" value="ANO" style="edgeLabel;html=1;align=center;verticalAlign=middle;resizable=0;points=[];fontSize=14;fontFamily=Times New Roman;fontColor=default;" parent="6HZ1eUQJFXA4Xak1XK23-153" vertex="1" connectable="0">
          <mxGeometry x="0.2899" y="1" relative="1" as="geometry">
            <mxPoint x="-14" y="-14" as="offset" />
          </mxGeometry>
        </mxCell>
        <mxCell id="6HZ1eUQJFXA4Xak1XK23-155" style="edgeStyle=orthogonalEdgeStyle;shape=connector;rounded=0;orthogonalLoop=1;jettySize=auto;html=1;exitX=1;exitY=0.5;exitDx=0;exitDy=0;labelBackgroundColor=default;strokeColor=default;fontFamily=Times New Roman;fontSize=14;fontColor=default;endArrow=none;endFill=0;endSize=8;" parent="6HZ1eUQJFXA4Xak1XK23-124" source="6HZ1eUQJFXA4Xak1XK23-156" edge="1">
          <mxGeometry relative="1" as="geometry">
            <mxPoint x="660" y="595" as="targetPoint" />
            <Array as="points">
              <mxPoint x="650" y="595" />
            </Array>
          </mxGeometry>
        </mxCell>
        <mxCell id="6HZ1eUQJFXA4Xak1XK23-156" value="Přiřaď CTM poslední uloženou hodnotu zásobníku" style="rounded=1;whiteSpace=wrap;html=1;fontSize=14;glass=0;strokeWidth=1;shadow=0;fontFamily=Times New Roman;fillColor=#dae8fc;strokeColor=#6c8ebf;" parent="6HZ1eUQJFXA4Xak1XK23-124" vertex="1">
          <mxGeometry x="490" y="570" width="130" height="50" as="geometry" />
        </mxCell>
        <mxCell id="6HZ1eUQJFXA4Xak1XK23-157" style="edgeStyle=orthogonalEdgeStyle;shape=connector;rounded=0;orthogonalLoop=1;jettySize=auto;html=1;exitX=1;exitY=0.5;exitDx=0;exitDy=0;entryX=0;entryY=0.5;entryDx=0;entryDy=0;labelBackgroundColor=default;strokeColor=default;fontFamily=Times New Roman;fontSize=14;fontColor=default;endArrow=block;endFill=0;endSize=8;" parent="6HZ1eUQJFXA4Xak1XK23-124" source="6HZ1eUQJFXA4Xak1XK23-147" target="6HZ1eUQJFXA4Xak1XK23-160" edge="1">
          <mxGeometry relative="1" as="geometry">
            <mxPoint x="694.5" y="565" as="sourcePoint" />
          </mxGeometry>
        </mxCell>
        <mxCell id="6HZ1eUQJFXA4Xak1XK23-158" value="ANO" style="edgeLabel;html=1;align=center;verticalAlign=middle;resizable=0;points=[];fontSize=14;fontFamily=Times New Roman;fontColor=default;" parent="6HZ1eUQJFXA4Xak1XK23-157" vertex="1" connectable="0">
          <mxGeometry x="0.2899" y="1" relative="1" as="geometry">
            <mxPoint x="-11" y="-14" as="offset" />
          </mxGeometry>
        </mxCell>
        <mxCell id="6HZ1eUQJFXA4Xak1XK23-159" style="edgeStyle=orthogonalEdgeStyle;shape=connector;rounded=0;orthogonalLoop=1;jettySize=auto;html=1;exitX=0.5;exitY=0;exitDx=0;exitDy=0;labelBackgroundColor=default;strokeColor=default;fontFamily=Times New Roman;fontSize=14;fontColor=default;endArrow=block;endFill=0;endSize=8;" parent="6HZ1eUQJFXA4Xak1XK23-124" source="6HZ1eUQJFXA4Xak1XK23-160" edge="1">
          <mxGeometry relative="1" as="geometry">
            <mxPoint x="148" y="310" as="targetPoint" />
            <Array as="points">
              <mxPoint x="625" y="630" />
              <mxPoint x="660" y="630" />
              <mxPoint x="660" y="310" />
            </Array>
          </mxGeometry>
        </mxCell>
        <mxCell id="6HZ1eUQJFXA4Xak1XK23-160" value="CTM vynásob zleva operandem příkazu a ulož do CTM" style="rounded=1;whiteSpace=wrap;html=1;fontSize=14;glass=0;strokeWidth=1;shadow=0;fontFamily=Times New Roman;fillColor=#dae8fc;strokeColor=#6c8ebf;" parent="6HZ1eUQJFXA4Xak1XK23-124" vertex="1">
          <mxGeometry x="560" y="660" width="130" height="50" as="geometry" />
        </mxCell>
        <mxCell id="6HZ1eUQJFXA4Xak1XK23-161" style="edgeStyle=orthogonalEdgeStyle;shape=connector;rounded=0;orthogonalLoop=1;jettySize=auto;html=1;exitX=1;exitY=0.5;exitDx=0;exitDy=0;labelBackgroundColor=default;strokeColor=default;fontFamily=Times New Roman;fontSize=14;fontColor=default;endArrow=block;endFill=0;endSize=8;entryX=1;entryY=0.5;entryDx=0;entryDy=0;" parent="6HZ1eUQJFXA4Xak1XK23-124" source="6HZ1eUQJFXA4Xak1XK23-150" target="6HZ1eUQJFXA4Xak1XK23-168" edge="1">
          <mxGeometry relative="1" as="geometry">
            <mxPoint x="897" y="565" as="sourcePoint" />
            <mxPoint x="881.5" y="615" as="targetPoint" />
            <Array as="points">
              <mxPoint x="670" y="790" />
              <mxPoint x="670" y="950" />
            </Array>
          </mxGeometry>
        </mxCell>
        <mxCell id="6HZ1eUQJFXA4Xak1XK23-162" value="ANO" style="edgeLabel;html=1;align=center;verticalAlign=middle;resizable=0;points=[];fontSize=14;fontFamily=Times New Roman;fontColor=default;" parent="6HZ1eUQJFXA4Xak1XK23-161" vertex="1" connectable="0">
          <mxGeometry x="0.2899" y="1" relative="1" as="geometry">
            <mxPoint x="-24" y="-146" as="offset" />
          </mxGeometry>
        </mxCell>
        <mxCell id="6HZ1eUQJFXA4Xak1XK23-163" style="edgeStyle=orthogonalEdgeStyle;shape=connector;rounded=0;orthogonalLoop=1;jettySize=auto;html=1;exitX=0.5;exitY=0;exitDx=0;exitDy=0;entryX=0.5;entryY=1;entryDx=0;entryDy=0;labelBackgroundColor=default;strokeColor=default;fontFamily=Times New Roman;fontSize=14;fontColor=default;endArrow=block;endFill=0;endSize=8;" parent="6HZ1eUQJFXA4Xak1XK23-124" source="6HZ1eUQJFXA4Xak1XK23-164" target="6HZ1eUQJFXA4Xak1XK23-172" edge="1">
          <mxGeometry relative="1" as="geometry" />
        </mxCell>
        <mxCell id="6HZ1eUQJFXA4Xak1XK23-164" value="CTM vynásob zprava transformační maticí stránky a ulož jako matici obrázku" style="rounded=1;whiteSpace=wrap;html=1;fontSize=14;glass=0;strokeWidth=1;shadow=0;fontFamily=Times New Roman;fillColor=#dae8fc;strokeColor=#6c8ebf;" parent="6HZ1eUQJFXA4Xak1XK23-124" vertex="1">
          <mxGeometry x="86.5" y="820" width="130" height="70" as="geometry" />
        </mxCell>
        <mxCell id="6HZ1eUQJFXA4Xak1XK23-165" style="edgeStyle=orthogonalEdgeStyle;shape=connector;rounded=0;orthogonalLoop=1;jettySize=auto;html=1;exitX=0.5;exitY=0;exitDx=0;exitDy=0;entryX=0.5;entryY=1;entryDx=0;entryDy=0;labelBackgroundColor=default;strokeColor=default;fontFamily=Times New Roman;fontSize=14;fontColor=default;endArrow=block;endFill=0;endSize=8;" parent="6HZ1eUQJFXA4Xak1XK23-124" source="6HZ1eUQJFXA4Xak1XK23-166" target="6HZ1eUQJFXA4Xak1XK23-164" edge="1">
          <mxGeometry relative="1" as="geometry" />
        </mxCell>
        <mxCell id="6HZ1eUQJFXA4Xak1XK23-166" value="Získej původní&lt;br style=&quot;font-size: 14px;&quot;&gt;souřadnice obrázku&amp;nbsp;" style="rounded=1;whiteSpace=wrap;html=1;fontSize=14;glass=0;strokeWidth=1;shadow=0;fontFamily=Times New Roman;fillColor=#dae8fc;strokeColor=#6c8ebf;" parent="6HZ1eUQJFXA4Xak1XK23-124" vertex="1">
          <mxGeometry x="86.5" y="930" width="130" height="40" as="geometry" />
        </mxCell>
        <mxCell id="6HZ1eUQJFXA4Xak1XK23-167" style="edgeStyle=orthogonalEdgeStyle;shape=connector;rounded=0;orthogonalLoop=1;jettySize=auto;html=1;exitX=0;exitY=0.5;exitDx=0;exitDy=0;entryX=1;entryY=0.5;entryDx=0;entryDy=0;labelBackgroundColor=default;strokeColor=default;fontFamily=Times New Roman;fontSize=14;fontColor=default;endArrow=block;endFill=0;endSize=8;" parent="6HZ1eUQJFXA4Xak1XK23-124" source="6HZ1eUQJFXA4Xak1XK23-168" target="6HZ1eUQJFXA4Xak1XK23-170" edge="1">
          <mxGeometry relative="1" as="geometry" />
        </mxCell>
        <mxCell id="6HZ1eUQJFXA4Xak1XK23-168" value="Ulož CTM do zásobníku" style="rounded=1;whiteSpace=wrap;html=1;fontSize=14;glass=0;strokeWidth=1;shadow=0;fontFamily=Times New Roman;fillColor=#dae8fc;strokeColor=#6c8ebf;" parent="6HZ1eUQJFXA4Xak1XK23-124" vertex="1">
          <mxGeometry x="490" y="930" width="130" height="40" as="geometry" />
        </mxCell>
        <mxCell id="6HZ1eUQJFXA4Xak1XK23-169" style="edgeStyle=orthogonalEdgeStyle;shape=connector;rounded=0;orthogonalLoop=1;jettySize=auto;html=1;exitX=0;exitY=0.5;exitDx=0;exitDy=0;entryX=1;entryY=0.5;entryDx=0;entryDy=0;labelBackgroundColor=default;strokeColor=default;fontFamily=Times New Roman;fontSize=14;fontColor=default;endArrow=block;endFill=0;endSize=8;" parent="6HZ1eUQJFXA4Xak1XK23-124" source="6HZ1eUQJFXA4Xak1XK23-170" target="6HZ1eUQJFXA4Xak1XK23-166" edge="1">
          <mxGeometry relative="1" as="geometry" />
        </mxCell>
        <mxCell id="6HZ1eUQJFXA4Xak1XK23-170" value="CTM vynásob zleva maticí obrázku a ulož do CTM" style="rounded=1;whiteSpace=wrap;html=1;fontSize=14;glass=0;strokeWidth=1;shadow=0;fontFamily=Times New Roman;fillColor=#dae8fc;strokeColor=#6c8ebf;" parent="6HZ1eUQJFXA4Xak1XK23-124" vertex="1">
          <mxGeometry x="290" y="925" width="130" height="50" as="geometry" />
        </mxCell>
        <mxCell id="6HZ1eUQJFXA4Xak1XK23-171" style="edgeStyle=orthogonalEdgeStyle;shape=connector;rounded=0;orthogonalLoop=1;jettySize=auto;html=1;exitX=0.5;exitY=0;exitDx=0;exitDy=0;entryX=0.5;entryY=1;entryDx=0;entryDy=0;labelBackgroundColor=default;strokeColor=default;fontFamily=Times New Roman;fontSize=14;fontColor=default;endArrow=block;endFill=0;endSize=8;" parent="6HZ1eUQJFXA4Xak1XK23-124" source="6HZ1eUQJFXA4Xak1XK23-172" target="6HZ1eUQJFXA4Xak1XK23-174" edge="1">
          <mxGeometry relative="1" as="geometry" />
        </mxCell>
        <mxCell id="6HZ1eUQJFXA4Xak1XK23-172" value="Získej souřadnice obrázku na aktuální stránce a ulož" style="rounded=1;whiteSpace=wrap;html=1;fontSize=14;glass=0;strokeWidth=1;shadow=0;fontFamily=Times New Roman;fillColor=#dae8fc;strokeColor=#6c8ebf;" parent="6HZ1eUQJFXA4Xak1XK23-124" vertex="1">
          <mxGeometry x="86.5" y="730" width="130" height="50" as="geometry" />
        </mxCell>
        <mxCell id="6HZ1eUQJFXA4Xak1XK23-173" style="edgeStyle=orthogonalEdgeStyle;shape=connector;rounded=0;orthogonalLoop=1;jettySize=auto;html=1;exitX=0.5;exitY=0;exitDx=0;exitDy=0;labelBackgroundColor=default;strokeColor=default;fontFamily=Times New Roman;fontSize=14;fontColor=default;endArrow=block;endFill=0;endSize=8;" parent="6HZ1eUQJFXA4Xak1XK23-124" source="6HZ1eUQJFXA4Xak1XK23-174" edge="1">
          <mxGeometry relative="1" as="geometry">
            <mxPoint x="148" y="310" as="targetPoint" />
            <Array as="points">
              <mxPoint x="151" y="590" />
              <mxPoint x="78" y="590" />
              <mxPoint x="78" y="310" />
            </Array>
          </mxGeometry>
        </mxCell>
        <mxCell id="6HZ1eUQJFXA4Xak1XK23-174" value="Přiřaď CTM poslední uloženou hodnotu zásobníku" style="rounded=1;whiteSpace=wrap;html=1;fontSize=14;glass=0;strokeWidth=1;shadow=0;fontFamily=Times New Roman;fillColor=#dae8fc;strokeColor=#6c8ebf;" parent="6HZ1eUQJFXA4Xak1XK23-124" vertex="1">
          <mxGeometry x="86.5" y="640" width="130" height="50" as="geometry" />
        </mxCell>
        <mxCell id="6HZ1eUQJFXA4Xak1XK23-176" style="edgeStyle=orthogonalEdgeStyle;shape=connector;rounded=0;orthogonalLoop=1;jettySize=auto;html=1;exitX=0;exitY=0.5;exitDx=0;exitDy=0;exitPerimeter=0;entryX=1;entryY=0.5;entryDx=0;entryDy=0;labelBackgroundColor=default;strokeColor=default;fontFamily=Times New Roman;fontSize=14;fontColor=default;endArrow=block;endFill=0;endSize=8;" parent="6HZ1eUQJFXA4Xak1XK23-124" source="6HZ1eUQJFXA4Xak1XK23-175" target="6HZ1eUQJFXA4Xak1XK23-134" edge="1">
          <mxGeometry relative="1" as="geometry" />
        </mxCell>
        <mxCell id="6HZ1eUQJFXA4Xak1XK23-175" value="START" style="strokeWidth=1;html=1;shape=mxgraph.flowchart.start_1;whiteSpace=wrap;fontFamily=Times New Roman;fontSize=14;fillColor=#d5e8d4;strokeColor=#82b366;" parent="6HZ1eUQJFXA4Xak1XK23-124" vertex="1">
          <mxGeometry x="470" y="230" width="100" height="60" as="geometry" />
        </mxCell>
        <mxCell id="6HZ1eUQJFXA4Xak1XK23-177" value="END" style="strokeWidth=1;html=1;shape=mxgraph.flowchart.start_1;whiteSpace=wrap;fontFamily=Times New Roman;fontSize=14;fillColor=#d5e8d4;strokeColor=#82b366;" parent="6HZ1eUQJFXA4Xak1XK23-124" vertex="1">
          <mxGeometry x="460" y="365" width="100" height="60" as="geometry" />
        </mxCell>
      </root>
    </mxGraphModel>
  </diagram>
</mxfile>
